{
.appVersion = "983";
DisplayStrings = (
"/fi lament",
/f_h.liga,
"/f_k.liga atastfh",
"scha/f_f.liga en",
/f_f.liga,
/f_j.liga,
f
);
copyright = "Copyright © 2017 by Nina Botthof. All rights reserved.";
date = "2017-06-21 10:27:15 +0000";
designer = "Nina Botthof";
familyName = Avon;
featurePrefixes = (
{
automatic = 1;
code = "languagesystem DFLT dflt;\012";
name = Languagesystems;
}
);
features = (
{
automatic = 1;
code = "sub f i by fi;\012sub f f by f_f.liga;\012sub f h by f_h.liga;\012sub f j by f_j.liga;\012sub f k by f_k.liga;\012sub f l by f_l.liga;\012";
name = liga;
}
);
fontMaster = (
{
ascender = 716;
capHeight = 670;
descender = -288;
guideLines = (
{
position = "{321, 505}";
},
{
position = "{465, 209}";
},
{
position = "{234, -134}";
}
);
id = "E3DDE12C-3A5F-4385-A6FD-0C1D1DE2DDC5";
xHeight = 452;
}
);
glyphs = (
{
glyphname = a;
lastChange = "2017-07-09 17:59:43 +0000";
layers = (
{
components = (
{
name = _part.bauch;
transform = "{1, 0, 0, 1, 9, 0}";
}
);
hints = (
{
origin = "{0, 0}";
target = "{0, 1}";
type = Cap;
name = _cap.untenneu;
},
{
origin = "{0, 2}";
target = "{0, 3}";
type = Cap;
name = _cap.knubbelneu;
}
);
layerId = "E3DDE12C-3A5F-4385-A6FD-0C1D1DE2DDC5";
paths = (
{
closed = 1;
nodes = (
"324 0 LINE",
"386 0 LINE",
"410 452 LINE",
"347 452 LINE"
);
}
);
width = 499;
}
);
leftMetricsKey = o;
unicode = 0061;
},
{
glyphname = adieresis;
lastChange = "2017-07-09 14:51:47 +0000";
layers = (
{
components = (
{
name = _part.bauch;
transform = "{1, 0, 0, 1, 9, 0}";
},
{
name = dotaccentcomb;
transform = "{1, 0, 0, 1, 60, 0}";
},
{
name = dotaccentcomb;
transform = "{1, 0, 0, 1, 269, 0}";
}
);
hints = (
{
origin = "{0, 2}";
target = "{0, 3}";
type = Cap;
name = _cap.knubbelneu;
},
{
origin = "{0, 0}";
target = "{0, 1}";
type = Cap;
name = _cap.untenneu;
}
);
layerId = "E3DDE12C-3A5F-4385-A6FD-0C1D1DE2DDC5";
paths = (
{
closed = 1;
nodes = (
"328 0 LINE",
"390 0 LINE",
"414 452 LINE",
"351 452 LINE"
);
}
);
width = 503;
}
);
leftMetricsKey = a;
rightMetricsKey = a;
unicode = 00E4;
},
{
glyphname = b;
lastChange = "2017-07-09 11:47:08 +0000";
layers = (
{
components = (
{
name = _part.bauch;
transform = "{-1, 0, 0, -1, 492, 449}";
}
);
hints = (
{
origin = "{0, 0}";
target = "{0, 1}";
type = Cap;
name = _cap.knubbelneu;
},
{
origin = "{0, 2}";
target = "{0, 3}";
type = Cap;
name = _cap.obenneu;
}
);
layerId = "E3DDE12C-3A5F-4385-A6FD-0C1D1DE2DDC5";
paths = (
{
closed = 1;
nodes = (
"87 0 LINE",
"149 0 LINE",
"186 712 LINE",
"123 712 LINE"
);
}
);
width = 506;
}
);
rightMetricsKey = o;
unicode = 0062;
},
{
glyphname = c;
lastChange = "2017-07-08 18:21:59 +0000";
layers = (
{
background = {
components = (
{
name = _part.bauch;
transform = "{1, 0, 0, 1, 10, 0}";
}
);
};
backgroundImage = {
crop = "{{0, 0}, {1110, 1280}}";
imagePath = "../finale Skizzen/c2.jpg";
locked = "1";
transform = "{0.4883, 0, 0, 0.4883, -27, -109}";
};
layerId = "E3DDE12C-3A5F-4385-A6FD-0C1D1DE2DDC5";
paths = (
{
closed = 1;
nodes = (
"332 163 LINE",
"367 136 LINE",
"346 113 OFFCURVE",
"271 59 OFFCURVE",
"230 59 CURVE SMOOTH",
"161 59 OFFCURVE",
"108 140 OFFCURVE",
"108 235 CURVE SMOOTH",
"108 315 OFFCURVE",
"155 409 OFFCURVE",
"228 409 CURVE SMOOTH",
"270 409 OFFCURVE",
"296 375 OFFCURVE",
"306 332 CURVE",
"326 325 LINE",
"363 345 OFFCURVE",
"393 374 OFFCURVE",
"418 414 CURVE",
"400 379 LINE",
"346 452 OFFCURVE",
"289 456 OFFCURVE",
"255 456 CURVE SMOOTH",
"123 456 OFFCURVE",
"40 325 OFFCURVE",
"40 193 CURVE SMOOTH",
"40 84 OFFCURVE",
"102 -28 OFFCURVE",
"231 -4 CURVE",
"287 27 OFFCURVE",
"350 76 OFFCURVE",
"387 117 CURVE",
"383 57 LINE"
);
}
);
width = 397;
}
);
leftMetricsKey = o;
unicode = 0063;
},
{
glyphname = d;
lastChange = "2017-07-08 19:47:58 +0000";
layers = (
{
background = {
paths = (
{
closed = 1;
nodes = (
"470 79 LINE",
"482 62 LINE",
"460 37 OFFCURVE",
"387 -2 OFFCURVE",
"343 -13 CURVE",
"322 9 LINE",
"331 173 OFFCURVE",
"330 388 OFFCURVE",
"330 653 CURVE",
"262 645 LINE",
"251 665 LINE",
"284 691 OFFCURVE",
"347 715 OFFCURVE",
"388 722 CURVE",
"410 698 LINE",
"388 658 OFFCURVE",
"387 73 OFFCURVE",
"390 52 CURVE"
);
},
{
closed = 1;
nodes = (
"300 202 OFFCURVE",
"257 100 OFFCURVE",
"229 -5 CURVE",
"204 -14 OFFCURVE",
"181 -11 OFFCURVE",
"154 -8 CURVE SMOOTH",
"82 0 OFFCURVE",
"28 84 OFFCURVE",
"41 187 CURVE SMOOTH",
"60 343 OFFCURVE",
"185 473 OFFCURVE",
"359 445 CURVE",
"369 369 LINE",
"131 513 OFFCURVE",
"36 128 OFFCURVE",
"183 51 CURVE",
"223 141 OFFCURVE",
"263 225 OFFCURVE",
"332 319 CURVE",
"334 276 LINE"
);
}
);
};
components = (
{
name = _part.bauch;
transform = "{1, 0, 0, 1, 9, 0}";
}
);
hints = (
{
origin = "{0, 0}";
target = "{0, 1}";
type = Cap;
name = _cap.untenneu;
},
{
origin = "{0, 2}";
target = "{0, 3}";
type = Cap;
name = _cap.obenneu;
}
);
layerId = "E3DDE12C-3A5F-4385-A6FD-0C1D1DE2DDC5";
paths = (
{
closed = 1;
nodes = (
"309 0 LINE",
"371 0 LINE",
"408 712 LINE",
"345 712 LINE"
);
}
);
width = 496;
}
);
leftMetricsKey = o;
unicode = 0064;
},
{
glyphname = e;
lastChange = "2017-07-09 18:00:00 +0000";
layers = (
{
background = {
paths = (
{
closed = 1;
nodes = (
"332 163 LINE",
"367 136 LINE",
"346 113 OFFCURVE",
"271 59 OFFCURVE",
"230 59 CURVE SMOOTH",
"161 59 OFFCURVE",
"108 140 OFFCURVE",
"108 235 CURVE SMOOTH",
"108 315 OFFCURVE",
"155 409 OFFCURVE",
"228 409 CURVE SMOOTH",
"270 409 OFFCURVE",
"296 375 OFFCURVE",
"306 332 CURVE",
"326 325 LINE",
"363 345 OFFCURVE",
"393 374 OFFCURVE",
"418 414 CURVE",
"400 379 LINE",
"346 452 OFFCURVE",
"289 456 OFFCURVE",
"255 456 CURVE SMOOTH",
"123 456 OFFCURVE",
"40 325 OFFCURVE",
"40 193 CURVE SMOOTH",
"40 84 OFFCURVE",
"102 -28 OFFCURVE",
"231 -4 CURVE",
"287 27 OFFCURVE",
"350 76 OFFCURVE",
"387 117 CURVE",
"383 57 LINE"
);
}
);
};
backgroundImage = {
crop = "{{0, 0}, {1110, 1280}}";
imagePath = "../finale Skizzen/e2.jpg";
locked = "1";
transform = "{0.5121, 0, 0, 0.5121, -65, -103}";
};
layerId = "E3DDE12C-3A5F-4385-A6FD-0C1D1DE2DDC5";
paths = (
{
closed = 1;
nodes = (
"344 168 LINE",
"386 154 LINE",
"338 104 OFFCURVE",
"272 59 OFFCURVE",
"229 59 CURVE SMOOTH",
"151 59 OFFCURVE",
"108 156 OFFCURVE",
"108 235 CURVE SMOOTH",
"108 322 OFFCURVE",
"152 416 OFFCURVE",
"226 416 CURVE SMOOTH",
"271 416 OFFCURVE",
"300 379 OFFCURVE",
"300 351 CURVE SMOOTH",
"300 317 OFFCURVE",
"157 226 OFFCURVE",
"88 186 CURVE",
"103 161 LINE",
"190 202 OFFCURVE",
"336 296 OFFCURVE",
"394 350 CURVE",
"393 383 OFFCURVE",
"360 463 OFFCURVE",
"253 463 CURVE SMOOTH",
"120 463 OFFCURVE",
"40 332 OFFCURVE",
"40 193 CURVE SMOOTH",
"40 84 OFFCURVE",
"106 -9 OFFCURVE",
"216 -9 CURVE",
"288 23 OFFCURVE",
"367 89 OFFCURVE",
"397 129 CURVE",
"393 69 LINE"
);
}
);
width = 410;
}
);
leftMetricsKey = o;
unicode = 0065;
},
{
glyphname = f;
lastChange = "2017-07-09 17:59:34 +0000";
layers = (
{
background = {
paths = (
{
closed = 1;
nodes = (
"212 582 OFFCURVE",
"241 670 OFFCURVE",
"303 670 CURVE SMOOTH",
"341 670 OFFCURVE",
"365 645 OFFCURVE",
"384 613 CURVE",
"404 606 LINE",
"436 626 OFFCURVE",
"462 655 OFFCURVE",
"487 695 CURVE",
"469 660 LINE",
"413 717 OFFCURVE",
"355 717 OFFCURVE",
"330 717 CURVE SMOOTH",
"209 717 OFFCURVE",
"149 619 OFFCURVE",
"140 492 CURVE SMOOTH",
"127 303 OFFCURVE",
"121 151 OFFCURVE",
"109 0 CURVE",
"141 -20 LINE",
"189 -3 LINE",
"187 228 OFFCURVE",
"190 313 OFFCURVE",
"208 534 CURVE SMOOTH"
);
},
{
closed = 1;
nodes = (
"73 440 OFFCURVE",
"61 423 OFFCURVE",
"54 414 CURVE",
"71 399 LINE",
"133 405 LINE",
"296 394 LINE",
"312 403 OFFCURVE",
"327 421 OFFCURVE",
"339 436 CURVE",
"322 451 LINE",
"137 452 LINE",
"84 449 LINE"
);
}
);
};
backgroundImage = {
crop = "{{0, 0}, {746, 1280}}";
imagePath = "../finale Skizzen/f2.jpg";
locked = "1";
transform = "{0.9386, -0.0328, 0.0328, 0.9386, -172, -338}";
};
layerId = "E3DDE12C-3A5F-4385-A6FD-0C1D1DE2DDC5";
paths = (
{
closed = 1;
nodes = (
"216 606 OFFCURVE",
"241 694 OFFCURVE",
"303 694 CURVE SMOOTH",
"336 694 OFFCURVE",
"357 665 OFFCURVE",
"374 627 CURVE",
"394 620 LINE",
"430 642 OFFCURVE",
"446 681 OFFCURVE",
"469 735 CURVE",
"469 694 LINE",
"407 740 OFFCURVE",
"355 741 OFFCURVE",
"330 741 CURVE SMOOTH",
"209 741 OFFCURVE",
"149 643 OFFCURVE",
"140 516 CURVE SMOOTH",
"127 318 OFFCURVE",
"121 159 OFFCURVE",
"109 0 CURVE SMOOTH",
"99 -129 OFFCURVE",
"72 -196 OFFCURVE",
"19 -196 CURVE SMOOTH",
"-6 -196 OFFCURVE",
"-21 -184 OFFCURVE",
"-31 -154 CURVE",
"-58 -154 LINE",
"-64 -193 OFFCURVE",
"-59 -231 OFFCURVE",
"-44 -268 CURVE",
"84 -296 OFFCURVE",
"154 -181 OFFCURVE",
"172 -3 CURVE SMOOTH",
"196 238 OFFCURVE",
"194 327 OFFCURVE",
"212 558 CURVE SMOOTH"
);
},
{
closed = 1;
nodes = (
"73 440 OFFCURVE",
"61 423 OFFCURVE",
"54 414 CURVE",
"71 399 LINE",
"133 405 LINE",
"296 394 LINE",
"312 403 OFFCURVE",
"327 421 OFFCURVE",
"339 436 CURVE",
"322 451 LINE",
"137 452 LINE",
"84 449 LINE"
);
}
);
width = 315;
}
);
unicode = 0066;
},
{
glyphname = g;
lastChange = "2017-07-09 11:47:46 +0000";
layers = (
{
backgroundImage = {
crop = "{{0, 0}, {1280, 1052}}";
imagePath = "../finale Skizzen/gg.jpg";
locked = "1";
transform = "{0.9124, 0, 0, 0.9124, -85, -367}";
};
components = (
{
name = _part.bauch;
transform = "{1, 0, 0, 1, 19, 0}";
}
);
hints = (
{
origin = "{1, 2}";
target = "{1, 3}";
type = Cap;
name = _cap.knubbelneu;
}
);
layerId = "E3DDE12C-3A5F-4385-A6FD-0C1D1DE2DDC5";
paths = (
{
closed = 1;
nodes = (
"59 -104 OFFCURVE",
"80 -86 OFFCURVE",
"108 -75 CURVE",
"129 -104 LINE",
"121 -195 OFFCURVE",
"191 -222 OFFCURVE",
"248 -222 CURVE SMOOTH",
"331 -222 OFFCURVE",
"370 -156 OFFCURVE",
"370 -97 CURVE SMOOTH",
"370 -20 OFFCURVE",
"331 64 OFFCURVE",
"336 162 CURVE",
"398 162 LINE",
"395 100 OFFCURVE",
"434 -5 OFFCURVE",
"434 -77 CURVE SMOOTH",
"434 -158 OFFCURVE",
"382 -270 OFFCURVE",
"234 -271 CURVE SMOOTH",
"149 -272 OFFCURVE",
"61 -236 OFFCURVE",
"40 -126 CURVE"
);
},
{
closed = 1;
nodes = (
"336 162 LINE",
"398 162 LINE",
"416 452 LINE",
"353 452 LINE"
);
}
);
width = 476;
}
);
leftMetricsKey = o;
rightMetricsKey = n;
unicode = 0067;
},
{
glyphname = h;
lastChange = "2017-07-09 17:11:40 +0000";
layers = (
{
components = (
{
name = _part.bogen;
transform = "{1, 0, 0, 1, 39, 0}";
}
);
hints = (
{
origin = "{0, 0}";
target = "{0, 1}";
type = Cap;
name = _cap.knubbelneu;
},
{
origin = "{0, 2}";
target = "{0, 3}";
type = Cap;
name = _cap.obenneu;
}
);
layerId = "E3DDE12C-3A5F-4385-A6FD-0C1D1DE2DDC5";
paths = (
{
closed = 1;
nodes = (
"87 0 LINE",
"149 0 LINE",
"186 712 LINE",
"123 712 LINE"
);
}
);
width = 539;
}
);
unicode = 0068;
},
{
glyphname = i;
lastChange = "2017-07-09 16:59:11 +0000";
layers = (
{
anchors = (
{
name = top;
position = "{139, 452}";
}
);
background = {
paths = (
{
closed = 1;
nodes = (
"235 79 LINE",
"247 62 LINE",
"225 37 OFFCURVE",
"152 -2 OFFCURVE",
"108 -13 CURVE",
"87 9 LINE",
"96 173 OFFCURVE",
"99 298 OFFCURVE",
"99 403 CURVE",
"31 395 LINE",
"20 415 LINE",
"53 441 OFFCURVE",
"116 465 OFFCURVE",
"157 472 CURVE",
"179 448 LINE",
"157 408 OFFCURVE",
"152 73 OFFCURVE",
"155 52 CURVE"
);
},
{
closed = 1;
nodes = (
"86 590 LINE",
"105 570 LINE",
"129 576 OFFCURVE",
"153 586 OFFCURVE",
"176 600 CURVE",
"176 626 OFFCURVE",
"177 652 OFFCURVE",
"178 677 CURVE",
"158 698 LINE",
"134 692 OFFCURVE",
"110 683 OFFCURVE",
"86 668 CURVE"
);
}
);
};
components = (
{
name = dotaccentcomb;
transform = "{1, 0, 0, 1, 32, 0}";
}
);
hints = (
{
origin = "{0, 2}";
target = "{0, 3}";
type = Cap;
name = _cap.obenneukurz;
},
{
origin = "{0, 0}";
target = "{0, 1}";
type = Cap;
name = _cap.untenneu;
}
);
layerId = "E3DDE12C-3A5F-4385-A6FD-0C1D1DE2DDC5";
paths = (
{
closed = 1;
nodes = (
"87 0 LINE",
"150 0 LINE",
"173 452 LINE",
"111 452 LINE"
);
}
);
width = 256;
}
);
unicode = 0069;
},
{
glyphname = j;
lastChange = "2017-07-09 17:54:10 +0000";
layers = (
{
background = {
hints = (
{
origin = "{2, 2}";
target = "{2, 3}";
type = Cap;
name = _cap.obenneukurz;
},
{
origin = "{2, 0}";
target = "{2, 1}";
type = Cap;
name = _cap.untenneu;
}
);
paths = (
{
closed = 1;
nodes = (
"174 -105 OFFCURVE",
"140 -217 OFFCURVE",
"44 -288 CURVE",
"25 -268 LINE",
"78 -201 OFFCURVE",
"109 -147 OFFCURVE",
"118 9 CURVE SMOOTH",
"127 173 OFFCURVE",
"124 298 OFFCURVE",
"124 403 CURVE",
"56 395 LINE",
"45 415 LINE",
"78 441 OFFCURVE",
"141 465 OFFCURVE",
"182 472 CURVE",
"204 448 LINE",
"182 408 OFFCURVE",
"187 120 OFFCURVE",
"180 0 CURVE SMOOTH"
);
},
{
closed = 1;
nodes = (
"111 590 LINE",
"130 570 LINE",
"154 576 OFFCURVE",
"178 586 OFFCURVE",
"201 600 CURVE",
"201 626 OFFCURVE",
"202 652 OFFCURVE",
"203 677 CURVE",
"183 698 LINE",
"159 692 OFFCURVE",
"135 683 OFFCURVE",
"111 668 CURVE"
);
},
{
closed = 1;
nodes = (
"112 0 LINE",
"175 0 LINE",
"198 452 LINE",
"136 452 LINE"
);
}
);
};
components = (
{
name = dotaccentcomb;
transform = "{1, 0, 0, 1, 50, 0}";
}
);
hints = (
{
origin = "{0, 4}";
target = "{0, 5}";
type = Cap;
name = _cap.obenneukurz;
}
);
layerId = "E3DDE12C-3A5F-4385-A6FD-0C1D1DE2DDC5";
paths = (
{
closed = 1;
nodes = (
"130 209 LINE",
"117 0 LINE",
"180 0 LINE",
"191 210 LINE",
"203 452 LINE",
"141 452 LINE"
);
},
{
closed = 1;
nodes = (
"44 -288 LINE",
"131 -222 OFFCURVE",
"174 -124 OFFCURVE",
"180 0 CURVE",
"117 0 LINE",
"109 -124 OFFCURVE",
"85 -200 OFFCURVE",
"25 -268 CURVE"
);
}
);
width = 265;
}
);
unicode = 006A;
},
{
glyphname = k;
lastChange = "2017-07-09 11:47:25 +0000";
layers = (
{
background = {
components = (
{
name = _part.bogen;
transform = "{1, 0, 0, 1, 45, 0}";
}
);
paths = (
{
closed = 1;
nodes = (
"390 -20 LINE",
"422 12 OFFCURVE",
"458 64 OFFCURVE",
"468 97 CURVE",
"450 107 LINE",
"395 57 LINE",
"354 105 OFFCURVE",
"311 205 OFFCURVE",
"282 285 CURVE",
"224 244 LINE",
"260 154 OFFCURVE",
"312 39 OFFCURVE",
"360 -11 CURVE"
);
}
);
};
hints = (
{
origin = "{0, 0}";
target = "{0, 1}";
type = Cap;
name = _cap.knubbelneu;
},
{
origin = "{0, 2}";
target = "{0, 3}";
type = Cap;
name = _cap.obenneu;
}
);
layerId = "E3DDE12C-3A5F-4385-A6FD-0C1D1DE2DDC5";
paths = (
{
closed = 1;
nodes = (
"92 0 LINE",
"154 0 LINE",
"191 712 LINE",
"128 712 LINE"
);
},
{
closed = 1;
nodes = (
"153 106 LINE",
"311 386 LINE",
"343 386 OFFCURVE",
"361 362 OFFCURVE",
"361 335 CURVE SMOOTH",
"361 291 OFFCURVE",
"308 240 OFFCURVE",
"249 188 CURVE",
"353 -19 LINE",
"392 -20 LINE",
"408 -7 OFFCURVE",
"421 8 OFFCURVE",
"429 28 CURVE",
"304 196 LINE",
"398 246 OFFCURVE",
"439 295 OFFCURVE",
"439 343 CURVE SMOOTH",
"439 430 OFFCURVE",
"357 471 OFFCURVE",
"279 453 CURVE",
"148 159 LINE"
);
}
);
width = 478;
}
);
leftMetricsKey = n;
unicode = 006B;
},
{
glyphname = l;
lastChange = "2017-07-09 16:48:46 +0000";
layers = (
{
background = {
paths = (
{
closed = 1;
nodes = (
"241 79 LINE",
"253 62 LINE",
"231 37 OFFCURVE",
"158 -2 OFFCURVE",
"114 -13 CURVE",
"93 9 LINE",
"102 173 OFFCURVE",
"104 388 OFFCURVE",
"104 653 CURVE",
"36 645 LINE",
"25 665 LINE",
"58 691 OFFCURVE",
"121 715 OFFCURVE",
"162 722 CURVE",
"184 698 LINE",
"162 658 OFFCURVE",
"158 73 OFFCURVE",
"161 52 CURVE"
);
}
);
};
hints = (
{
origin = "{0, 2}";
target = "{0, 3}";
type = Cap;
name = _cap.obenneu;
},
{
origin = "{0, 0}";
target = "{0, 1}";
type = Cap;
name = _cap.untenneu;
}
);
layerId = "E3DDE12C-3A5F-4385-A6FD-0C1D1DE2DDC5";
paths = (
{
closed = 1;
nodes = (
"87 0 LINE",
"149 0 LINE",
"186 712 LINE",
"123 712 LINE"
);
}
);
width = 249;
}
);
unicode = 006C;
},
{
glyphname = m;
lastChange = "2017-07-09 11:47:33 +0000";
layers = (
{
background = {
paths = (
{
closed = 1;
nodes = (
"68 433 OFFCURVE",
"131 457 OFFCURVE",
"172 464 CURVE",
"194 440 LINE",
"174 359 OFFCURVE",
"178 214 OFFCURVE",
"178 101 CURVE SMOOTH",
"178 78 OFFCURVE",
"178 51 OFFCURVE",
"186 8 CURVE",
"132 -14 LINE",
"97 -14 OFFCURVE",
"79 26 OFFCURVE",
"92 66 CURVE SMOOTH",
"104 102 OFFCURVE",
"118 127 OFFCURVE",
"133 155 CURVE",
"156 180 OFFCURVE",
"160 154 OFFCURVE",
"173 180 CURVE SMOOTH",
"213 259 OFFCURVE",
"243 344 OFFCURVE",
"275 459 CURVE",
"290 464 OFFCURVE",
"305 467 OFFCURVE",
"331 465 CURVE SMOOTH",
"388 460 OFFCURVE",
"429 422 OFFCURVE",
"429 311 CURVE",
"429 225 OFFCURVE",
"416 130 OFFCURVE",
"421 51 CURVE",
"349 9 LINE",
"353 89 OFFCURVE",
"357 175 OFFCURVE",
"358 257 CURVE",
"358 360 OFFCURVE",
"355 387 OFFCURVE",
"320 404 CURVE",
"262 273 OFFCURVE",
"222 191 OFFCURVE",
"171 121 CURVE SMOOTH",
"148 89 OFFCURVE",
"136 108 OFFCURVE",
"114 75 CURVE",
"114 395 LINE",
"46 387 LINE",
"35 407 LINE"
);
},
{
closed = 1;
nodes = (
"388 123 LINE",
"420 159 LINE",
"420 139 OFFCURVE",
"420 120 OFFCURVE",
"420 101 CURVE SMOOTH",
"420 78 OFFCURVE",
"420 51 OFFCURVE",
"428 8 CURVE",
"374 -14 LINE",
"339 -14 OFFCURVE",
"325 26 OFFCURVE",
"336 66 CURVE SMOOTH",
"346 102 OFFCURVE",
"360 127 OFFCURVE",
"375 155 CURVE",
"398 180 OFFCURVE",
"402 154 OFFCURVE",
"415 180 CURVE SMOOTH",
"455 259 OFFCURVE",
"485 344 OFFCURVE",
"517 459 CURVE",
"532 464 OFFCURVE",
"547 467 OFFCURVE",
"573 465 CURVE SMOOTH",
"630 460 OFFCURVE",
"671 422 OFFCURVE",
"671 311 CURVE",
"671 225 OFFCURVE",
"658 130 OFFCURVE",
"663 51 CURVE",
"743 78 LINE",
"754 61 LINE",
"727 31 OFFCURVE",
"644 -7 OFFCURVE",
"613 -14 CURVE",
"591 9 LINE",
"595 89 OFFCURVE",
"599 175 OFFCURVE",
"600 257 CURVE",
"600 360 OFFCURVE",
"597 387 OFFCURVE",
"562 404 CURVE",
"504 273 OFFCURVE",
"464 191 OFFCURVE",
"413 121 CURVE"
);
}
);
};
components = (
{
name = _part.bogen;
transform = "{1, 0, 0, 1, 323, 0}";
piece = {
crotchDepth = -17.1765;
shoulderWidh = 14.0735;
};
},
{
name = _part.bogenknubbel;
transform = "{1, 0, 0, 1, 56, 0}";
piece = {
shoulderWidh = 49.942;
};
}
);
hints = (
{
origin = "{0, 0}";
target = "{0, 1}";
type = Cap;
name = _cap.knubbelneu;
},
{
origin = "{0, 2}";
target = "{0, 3}";
type = Cap;
name = _cap.obenneukurz;
}
);
layerId = "E3DDE12C-3A5F-4385-A6FD-0C1D1DE2DDC5";
paths = (
{
closed = 1;
nodes = (
"105 0 LINE",
"167 0 LINE",
"188 452 LINE",
"126 452 LINE"
);
}
);
width = 820;
}
);
leftMetricsKey = n;
rightMetricsKey = n;
unicode = 006D;
},
{
glyphname = n;
lastChange = "2017-07-08 19:21:53 +0000";
layers = (
{
background = {
paths = (
{
closed = 1;
nodes = (
"68 433 OFFCURVE",
"131 457 OFFCURVE",
"172 464 CURVE",
"194 440 LINE",
"174 359 OFFCURVE",
"178 214 OFFCURVE",
"178 101 CURVE SMOOTH",
"178 78 OFFCURVE",
"178 51 OFFCURVE",
"186 8 CURVE",
"132 -14 LINE",
"97 -14 OFFCURVE",
"79 26 OFFCURVE",
"92 66 CURVE SMOOTH",
"104 102 OFFCURVE",
"118 127 OFFCURVE",
"133 155 CURVE",
"156 180 OFFCURVE",
"160 154 OFFCURVE",
"173 180 CURVE SMOOTH",
"213 259 OFFCURVE",
"246 344 OFFCURVE",
"278 459 CURVE",
"293 464 OFFCURVE",
"308 467 OFFCURVE",
"334 465 CURVE SMOOTH",
"393 461 OFFCURVE",
"434 422 OFFCURVE",
"434 311 CURVE",
"434 225 OFFCURVE",
"421 130 OFFCURVE",
"426 51 CURVE",
"506 78 LINE",
"517 61 LINE",
"490 31 OFFCURVE",
"407 -7 OFFCURVE",
"376 -14 CURVE",
"354 9 LINE",
"358 89 OFFCURVE",
"362 175 OFFCURVE",
"363 257 CURVE",
"363 360 OFFCURVE",
"360 387 OFFCURVE",
"323 404 CURVE",
"265 273 OFFCURVE",
"222 191 OFFCURVE",
"171 121 CURVE SMOOTH",
"148 89 OFFCURVE",
"136 108 OFFCURVE",
"114 75 CURVE",
"114 395 LINE",
"46 387 LINE",
"35 407 LINE"
);
}
);
};
components = (
{
name = _part.bogen;
transform = "{1, 0, 0, 1, 56, 0}";
}
);
hints = (
{
origin = "{0, 0}";
target = "{0, 1}";
type = Cap;
name = _cap.knubbelneu;
},
{
origin = "{0, 2}";
target = "{0, 3}";
type = Cap;
name = _cap.obenneukurz;
}
);
layerId = "E3DDE12C-3A5F-4385-A6FD-0C1D1DE2DDC5";
paths = (
{
closed = 1;
nodes = (
"105 0 LINE",
"167 0 LINE",
"188 452 LINE",
"126 452 LINE"
);
}
);
width = 558;
}
);
unicode = 006E;
},
{
glyphname = o;
lastChange = "2017-07-09 18:00:16 +0000";
layers = (
{
background = {
paths = (
{
closed = 1;
nodes = (
"347 325 LINE",
"384 345 OFFCURVE",
"414 374 OFFCURVE",
"439 414 CURVE",
"421 379 LINE",
"360 461 OFFCURVE",
"294 456 OFFCURVE",
"263 456 CURVE SMOOTH",
"130 456 OFFCURVE",
"40 325 OFFCURVE",
"40 193 CURVE SMOOTH",
"40 84 OFFCURVE",
"109 -9 OFFCURVE",
"206 -9 CURVE SMOOTH",
"343 -9 OFFCURVE",
"443 110 OFFCURVE",
"443 248 CURVE SMOOTH",
"443 324 OFFCURVE",
"426 368 OFFCURVE",
"374 422 CURVE",
"411 425 LINE",
"303 342 LINE",
"340 384 LINE",
"374 310 OFFCURVE",
"383 282 OFFCURVE",
"383 223 CURVE SMOOTH",
"383 118 OFFCURVE",
"333 53 OFFCURVE",
"249 53 CURVE SMOOTH",
"154 53 OFFCURVE",
"108 156 OFFCURVE",
"108 235 CURVE SMOOTH",
"108 315 OFFCURVE",
"162 409 OFFCURVE",
"236 409 CURVE SMOOTH",
"284 409 OFFCURVE",
"308 375 OFFCURVE",
"327 332 CURVE"
);
},
{
closed = 1;
nodes = (
"332 163 LINE",
"367 136 LINE",
"346 113 OFFCURVE",
"271 59 OFFCURVE",
"230 59 CURVE SMOOTH",
"161 59 OFFCURVE",
"108 140 OFFCURVE",
"108 235 CURVE SMOOTH",
"108 315 OFFCURVE",
"155 409 OFFCURVE",
"228 409 CURVE SMOOTH",
"270 409 OFFCURVE",
"296 375 OFFCURVE",
"306 332 CURVE",
"326 325 LINE",
"363 345 OFFCURVE",
"393 374 OFFCURVE",
"418 414 CURVE",
"400 379 LINE",
"346 452 OFFCURVE",
"289 456 OFFCURVE",
"255 456 CURVE SMOOTH",
"123 456 OFFCURVE",
"40 325 OFFCURVE",
"40 193 CURVE SMOOTH",
"40 84 OFFCURVE",
"102 -28 OFFCURVE",
"231 -4 CURVE",
"287 27 OFFCURVE",
"350 76 OFFCURVE",
"387 117 CURVE",
"383 57 LINE"
);
}
);
};
layerId = "E3DDE12C-3A5F-4385-A6FD-0C1D1DE2DDC5";
paths = (
{
closed = 1;
nodes = (
"315 358 LINE",
"326 379 LINE",
"353 348 OFFCURVE",
"374 302 OFFCURVE",
"370 217 CURVE SMOOTH",
"367 137 OFFCURVE",
"313 59 OFFCURVE",
"230 59 CURVE SMOOTH",
"161 59 OFFCURVE",
"108 123 OFFCURVE",
"108 235 CURVE SMOOTH",
"108 320 OFFCURVE",
"155 419 OFFCURVE",
"228 419 CURVE SMOOTH",
"270 419 OFFCURVE",
"296 385 OFFCURVE",
"306 342 CURVE",
"326 325 LINE",
"352 338 OFFCURVE",
"374 357 OFFCURVE",
"393 383 CURVE",
"391 404 LINE",
"344 459 OFFCURVE",
"285 466 OFFCURVE",
"255 466 CURVE SMOOTH",
"123 466 OFFCURVE",
"40 330 OFFCURVE",
"40 193 CURVE SMOOTH",
"40 84 OFFCURVE",
"100 -11 OFFCURVE",
"217 -11 CURVE SMOOTH",
"321 -11 OFFCURVE",
"420 87 OFFCURVE",
"420 243 CURVE SMOOTH",
"420 310 OFFCURVE",
"406 363 OFFCURVE",
"363 428 CURVE"
);
}
);
width = 465;
}
);
unicode = 006F;
},
{
glyphname = odieresis;
lastChange = "2017-07-09 14:51:37 +0000";
layers = (
{
components = (
{
name = dotaccentcomb;
transform = "{1, 0, 0, 1, 49, 0}";
},
{
name = dotaccentcomb;
transform = "{1, 0, 0, 1, 258, 0}";
}
);
layerId = "E3DDE12C-3A5F-4385-A6FD-0C1D1DE2DDC5";
paths = (
{
closed = 1;
nodes = (
"315 358 LINE",
"326 379 LINE",
"353 348 OFFCURVE",
"374 302 OFFCURVE",
"370 217 CURVE SMOOTH",
"367 137 OFFCURVE",
"313 59 OFFCURVE",
"230 59 CURVE SMOOTH",
"161 59 OFFCURVE",
"108 123 OFFCURVE",
"108 235 CURVE SMOOTH",
"108 320 OFFCURVE",
"155 419 OFFCURVE",
"228 419 CURVE SMOOTH",
"270 419 OFFCURVE",
"296 385 OFFCURVE",
"306 342 CURVE",
"326 325 LINE",
"363 355 OFFCURVE",
"393 384 OFFCURVE",
"418 424 CURVE",
"400 389 LINE",
"346 462 OFFCURVE",
"289 466 OFFCURVE",
"255 466 CURVE SMOOTH",
"123 466 OFFCURVE",
"40 330 OFFCURVE",
"40 193 CURVE SMOOTH",
"40 84 OFFCURVE",
"100 -11 OFFCURVE",
"217 -11 CURVE SMOOTH",
"321 -11 OFFCURVE",
"420 87 OFFCURVE",
"420 243 CURVE SMOOTH",
"420 310 OFFCURVE",
"406 363 OFFCURVE",
"363 428 CURVE",
"421 409 LINE"
);
}
);
width = 468;
}
);
leftMetricsKey = o;
rightMetricsKey = o;
unicode = 00F6;
},
{
glyphname = p;
lastChange = "2017-07-09 11:47:58 +0000";
layers = (
{
background = {
paths = (
{
closed = 1;
nodes = (
"183 131 LINE",
"252 228 OFFCURVE",
"287 297 OFFCURVE",
"334 404 CURVE",
"481 327 OFFCURVE",
"387 -59 OFFCURVE",
"148 85 CURVE",
"146 12 LINE",
"327 -25 OFFCURVE",
"456 108 OFFCURVE",
"477 268 CURVE SMOOTH",
"489 371 OFFCURVE",
"435 454 OFFCURVE",
"364 463 CURVE SMOOTH",
"336 466 OFFCURVE",
"313 468 OFFCURVE",
"289 459 CURVE",
"267 370 OFFCURVE",
"214 247 OFFCURVE",
"183 186 CURVE"
);
},
{
closed = 0;
nodes = (
"189 52 LINE"
);
},
{
closed = 0;
nodes = (
"188 165 LINE"
);
},
{
closed = 1;
nodes = (
"176 -204 OFFCURVE",
"187 414 OFFCURVE",
"209 454 CURVE",
"187 478 LINE",
"146 471 OFFCURVE",
"83 447 OFFCURVE",
"50 421 CURVE",
"61 401 LINE",
"129 409 LINE",
"129 144 OFFCURVE",
"120 -104 OFFCURVE",
"111 -268 CURVE",
"132 -290 LINE",
"179 -276 OFFCURVE",
"233 -251 OFFCURVE",
"271 -215 CURVE",
"259 -198 LINE",
"179 -225 LINE"
);
}
);
};
components = (
{
name = _part.bauch;
transform = "{-1, 0, 0, -1, 528, 449}";
}
);
hints = (
{
origin = "{0, 2}";
target = "{0, 3}";
type = Cap;
name = _cap.obenneu;
},
{
origin = "{0, 0}";
target = "{0, 1}";
type = Cap;
name = _cap.unterlaenge;
}
);
layerId = "E3DDE12C-3A5F-4385-A6FD-0C1D1DE2DDC5";
paths = (
{
closed = 1;
nodes = (
"97 -288 LINE",
"160 -288 LINE",
"203 452 LINE",
"140 452 LINE"
);
}
);
width = 542;
}
);
rightMetricsKey = o;
unicode = 0070;
},
{
glyphname = q;
lastChange = "2017-07-07 19:51:31 +0000";
layers = (
{
background = {
paths = (
{
closed = 1;
nodes = (
"20 83 OFFCURVE",
"74 0 OFFCURVE",
"145 -9 CURVE SMOOTH",
"173 -12 OFFCURVE",
"196 -14 OFFCURVE",
"220 -5 CURVE",
"242 84 OFFCURVE",
"295 207 OFFCURVE",
"326 268 CURVE",
"353 317 OFFCURVE",
"349 266 OFFCURVE",
"365 296 CURVE SMOOTH",
"380 324 OFFCURVE",
"394 348 OFFCURVE",
"405 379 CURVE SMOOTH",
"419 420 OFFCURVE",
"409 452 OFFCURVE",
"369 467 CURVE",
"311 442 LINE",
"326 361 OFFCURVE",
"312 -104 OFFCURVE",
"299 -268 CURVE",
"320 -290 LINE",
"364 -279 OFFCURVE",
"441 -240 OFFCURVE",
"463 -215 CURVE",
"451 -198 LINE",
"371 -225 LINE",
"371 -121 OFFCURVE",
"380 222 OFFCURVE",
"392 369 CURVE",
"366 339 OFFCURVE",
"360 356 OFFCURVE",
"323 318 CURVE",
"254 221 OFFCURVE",
"222 157 OFFCURVE",
"175 50 CURVE",
"28 127 OFFCURVE",
"122 513 OFFCURVE",
"361 369 CURVE",
"398 433 LINE",
"199 495 OFFCURVE",
"54 356 OFFCURVE",
"32 186 CURVE SMOOTH"
);
}
);
};
components = (
{
name = _part.bauch;
transform = "{1, 0, 0, 1, 9, 0}";
}
);
hints = (
{
origin = "{0, 0}";
target = "{0, 1}";
type = Cap;
name = _cap.unterlaenge;
},
{
origin = "{0, 2}";
target = "{0, 3}";
type = Cap;
name = _cap.knubbelneu;
}
);
layerId = "E3DDE12C-3A5F-4385-A6FD-0C1D1DE2DDC5";
paths = (
{
closed = 1;
nodes = (
"305 -288 LINE",
"368 -288 LINE",
"411 452 LINE",
"348 452 LINE"
);
}
);
width = 493;
}
);
leftMetricsKey = o;
unicode = 0071;
},
{
glyphname = r;
lastChange = "2017-07-08 19:22:15 +0000";
layers = (
{
background = {
components = (
{
name = _part.r;
transform = "{1, 0, 0, 1, 55, 0}";
piece = {
crotchDepth = -100;
shoulderWidh = 0;
};
}
);
paths = (
{
closed = 1;
nodes = (
"256 252 OFFCURVE",
"274 397 OFFCURVE",
"387 360 CURVE",
"411 379 LINE",
"406 409 OFFCURVE",
"396 437 OFFCURVE",
"382 466 CURVE",
"334 470 OFFCURVE",
"298 452 OFFCURVE",
"270 420 CURVE",
"139 102 LINE",
"156 71 LINE"
);
}
);
};
hints = (
{
origin = "{0, 2}";
target = "{0, 3}";
type = Cap;
name = _cap.obenneukurz;
},
{
origin = "{0, 0}";
target = "{0, 1}";
type = Cap;
name = _cap.knubbelneu;
}
);
layerId = "E3DDE12C-3A5F-4385-A6FD-0C1D1DE2DDC5";
paths = (
{
closed = 1;
nodes = (
"116 0 LINE",
"179 0 LINE",
"178 452 LINE",
"116 452 LINE"
);
},
{
closed = 1;
nodes = (
"240 281 OFFCURVE",
"298 402 OFFCURVE",
"350 370 CURVE",
"374 385 LINE",
"380 416 OFFCURVE",
"376 435 OFFCURVE",
"362 466 CURVE",
"250 476 OFFCURVE",
"240 388 OFFCURVE",
"139 102 CURVE",
"156 71 LINE"
);
}
);
width = 385;
}
);
unicode = 0072;
},
{
glyphname = s;
lastChange = "2017-07-09 15:59:38 +0000";
layers = (
{
background = {
paths = (
{
closed = 1;
nodes = (
"39 30 OFFCURVE",
"72 -8 OFFCURVE",
"143 -8 CURVE SMOOTH",
"232 -8 OFFCURVE",
"290 51 OFFCURVE",
"294 125 CURVE SMOOTH",
"301 258 OFFCURVE",
"104 266 OFFCURVE",
"109 353 CURVE SMOOTH",
"114 434 OFFCURVE",
"250 420 OFFCURVE",
"287 363 CURVE",
"277 308 LINE",
"298 298 LINE",
"319 324 OFFCURVE",
"338 354 OFFCURVE",
"352 393 CURVE",
"337 420 LINE",
"227 504 OFFCURVE",
"48 478 OFFCURVE",
"48 332 CURVE SMOOTH",
"48 193 OFFCURVE",
"243 190 OFFCURVE",
"239 99 CURVE SMOOTH",
"238 76 OFFCURVE",
"223 43 OFFCURVE",
"175 43 CURVE SMOOTH",
"133 43 OFFCURVE",
"115 69 OFFCURVE",
"100 102 CURVE",
"87 109 LINE",
"54 96 OFFCURVE",
"36 82 OFFCURVE",
"22 59 CURVE"
);
}
);
};
backgroundImage = {
crop = "{{0, 0}, {953, 1280}}";
imagePath = "../finale Skizzen/s neu.jpg";
locked = "1";
transform = "{0.5264, 0, 0, 0.5264, -41, -116}";
};
layerId = "E3DDE12C-3A5F-4385-A6FD-0C1D1DE2DDC5";
paths = (
{
closed = 1;
nodes = (
"335 420 OFFCURVE",
"302 458 OFFCURVE",
"231 458 CURVE SMOOTH",
"142 458 OFFCURVE",
"84 399 OFFCURVE",
"80 325 CURVE SMOOTH",
"74 192 OFFCURVE",
"272 182 OFFCURVE",
"270 94 CURVE SMOOTH",
"268 -4 OFFCURVE",
"107 18 OFFCURVE",
"81 129 CURVE",
"66 127 LINE",
"50 102 OFFCURVE",
"41 76 OFFCURVE",
"43 44 CURVE",
"150 -74 OFFCURVE",
"326 -11 OFFCURVE",
"326 118 CURVE SMOOTH",
"326 257 OFFCURVE",
"130 260 OFFCURVE",
"135 351 CURVE SMOOTH",
"136 374 OFFCURVE",
"151 407 OFFCURVE",
"199 407 CURVE SMOOTH",
"241 407 OFFCURVE",
"259 381 OFFCURVE",
"274 348 CURVE",
"287 341 LINE",
"320 354 OFFCURVE",
"338 368 OFFCURVE",
"352 391 CURVE"
);
}
);
width = 385;
}
);
unicode = 0073;
},
{
glyphname = germandbls;
lastChange = "2017-07-09 16:06:45 +0000";
layers = (
{
background = {
paths = (
{
closed = 1;
nodes = (
"106 402 LINE",
"113 397 LINE",
"85 57 LINE SMOOTH",
"77 -35 OFFCURVE",
"73 -93 OFFCURVE",
"70 -130 CURVE",
"59 -169 OFFCURVE",
"32 -195 OFFCURVE",
"1 -195 CURVE SMOOTH",
"-42 -195 OFFCURVE",
"-70 -163 OFFCURVE",
"-69 -112 CURVE",
"-83 -112 LINE",
"-88 -121 OFFCURVE",
"-95 -137 OFFCURVE",
"-102 -152 CURVE SMOOTH",
"-109 -168 OFFCURVE",
"-114 -184 OFFCURVE",
"-117 -196 CURVE",
"-109 -223 OFFCURVE",
"-70 -242 OFFCURVE",
"-27 -242 CURVE SMOOTH",
"60 -242 OFFCURVE",
"116 -180 OFFCURVE",
"128 -75 CURVE SMOOTH",
"187 451 LINE",
"200 569 LINE SMOOTH",
"210 645 OFFCURVE",
"244 683 OFFCURVE",
"303 683 CURVE SMOOTH",
"382 683 OFFCURVE",
"430 650 OFFCURVE",
"430 598 CURVE SMOOTH",
"430 583 OFFCURVE",
"426 570 OFFCURVE",
"419 558 CURVE",
"403 534 OFFCURVE",
"380 512 OFFCURVE",
"354 490 CURVE SMOOTH",
"341 479 OFFCURVE",
"328 467 OFFCURVE",
"317 454 CURVE",
"294 429 OFFCURVE",
"277 401 OFFCURVE",
"277 365 CURVE SMOOTH",
"277 345 OFFCURVE",
"282 327 OFFCURVE",
"291 312 CURVE SMOOTH",
"309 280 OFFCURVE",
"336 256 OFFCURVE",
"367 234 CURVE SMOOTH",
"382 223 OFFCURVE",
"397 212 OFFCURVE",
"410 201 CURVE SMOOTH",
"437 179 OFFCURVE",
"457 154 OFFCURVE",
"457 123 CURVE SMOOTH",
"457 100 OFFCURVE",
"447 77 OFFCURVE",
"431 61 CURVE SMOOTH",
"415 44 OFFCURVE",
"394 32 OFFCURVE",
"374 32 CURVE SMOOTH",
"317 32 OFFCURVE",
"288 67 OFFCURVE",
"296 127 CURVE",
"282 127 LINE",
"273 118 OFFCURVE",
"261 101 OFFCURVE",
"252 84 CURVE SMOOTH",
"243 67 OFFCURVE",
"235 50 OFFCURVE",
"234 41 CURVE",
"233 26 OFFCURVE",
"246 13 OFFCURVE",
"267 4 CURVE SMOOTH",
"287 -5 OFFCURVE",
"318 -12 OFFCURVE",
"350 -12 CURVE SMOOTH",
"398 -12 OFFCURVE",
"445 8 OFFCURVE",
"478 40 CURVE SMOOTH",
"511 71 OFFCURVE",
"533 113 OFFCURVE",
"533 160 CURVE SMOOTH",
"533 180 OFFCURVE",
"529 198 OFFCURVE",
"520 214 CURVE SMOOTH",
"502 245 OFFCURVE",
"474 270 OFFCURVE",
"443 291 CURVE SMOOTH",
"427 302 OFFCURVE",
"412 312 OFFCURVE",
"399 323 CURVE",
"372 344 OFFCURVE",
"352 365 OFFCURVE",
"352 392 CURVE SMOOTH",
"352 406 OFFCURVE",
"356 419 OFFCURVE",
"363 430 CURVE SMOOTH",
"378 453 OFFCURVE",
"402 474 OFFCURVE",
"428 496 CURVE SMOOTH",
"441 507 OFFCURVE",
"453 518 OFFCURVE",
"464 531 CURVE",
"487 556 OFFCURVE",
"503 588 OFFCURVE",
"503 629 CURVE SMOOTH",
"503 661 OFFCURVE",
"485 689 OFFCURVE",
"457 709 CURVE SMOOTH",
"429 729 OFFCURVE",
"389 742 OFFCURVE",
"345 742 CURVE SMOOTH",
"289 742 OFFCURVE",
"239 720 OFFCURVE",
"200 683 CURVE SMOOTH",
"160 646 OFFCURVE",
"134 592 OFFCURVE",
"126 531 CURVE SMOOTH",
"117 451 LINE",
"38 439 LINE",
"34 410 LINE",
"37 405 LINE"
);
},
{
closed = 1;
nodes = (
"72 -117 OFFCURVE",
"72 -119 OFFCURVE",
"72 -122 CURVE",
"72 -119 OFFCURVE",
"72 -117 OFFCURVE",
"73 -116 CURVE"
);
},
{
closed = 1;
nodes = (
"66 -170 LINE",
"66 -176 LINE"
);
}
);
};
layerId = "E3DDE12C-3A5F-4385-A6FD-0C1D1DE2DDC5";
paths = (
{
closed = 1;
nodes = (
"280 215 OFFCURVE",
"472 218 OFFCURVE",
"470 94 CURVE SMOOTH",
"469 4 OFFCURVE",
"296 15 OFFCURVE",
"270 126 CURVE",
"255 124 LINE",
"239 99 OFFCURVE",
"230 73 OFFCURVE",
"232 41 CURVE",
"343 -82 OFFCURVE",
"526 -16 OFFCURVE",
"526 124 CURVE SMOOTH",
"526 303 OFFCURVE",
"333 287 OFFCURVE",
"335 394 CURVE SMOOTH",
"337 468 OFFCURVE",
"469 495 OFFCURVE",
"469 595 CURVE SMOOTH",
"469 670 OFFCURVE",
"387 716 OFFCURVE",
"315 717 CURVE SMOOTH",
"189 719 OFFCURVE",
"129 619 OFFCURVE",
"120 492 CURVE SMOOTH",
"107 303 OFFCURVE",
"101 152 OFFCURVE",
"89 0 CURVE SMOOTH",
"79 -129 OFFCURVE",
"52 -196 OFFCURVE",
"-1 -196 CURVE SMOOTH",
"-26 -196 OFFCURVE",
"-41 -184 OFFCURVE",
"-51 -154 CURVE",
"-78 -154 LINE",
"-84 -193 OFFCURVE",
"-79 -231 OFFCURVE",
"-64 -268 CURVE",
"64 -296 OFFCURVE",
"134 -181 OFFCURVE",
"152 -3 CURVE SMOOTH",
"175 228 OFFCURVE",
"174 313 OFFCURVE",
"192 534 CURVE SMOOTH",
"196 582 OFFCURVE",
"221 674 OFFCURVE",
"296 674 CURVE SMOOTH",
"361 674 OFFCURVE",
"390 630 OFFCURVE",
"390 580 CURVE SMOOTH",
"390 515 OFFCURVE",
"280 468 OFFCURVE",
"280 368 CURVE SMOOTH"
);
},
{
closed = 1;
nodes = (
"157 452 LINE",
"117 452 LINE",
"64 449 LINE",
"53 440 OFFCURVE",
"41 423 OFFCURVE",
"34 414 CURVE",
"51 399 LINE",
"113 405 LINE",
"149 403 LINE"
);
}
);
width = 556;
}
);
unicode = 00DF;
},
{
glyphname = t;
lastChange = "2017-07-09 17:08:35 +0000";
layers = (
{
background = {
hints = (
{
origin = "{0, 2}";
target = "{0, 3}";
type = Cap;
name = _cap.obenneu;
},
{
origin = "{0, 0}";
target = "{0, 1}";
type = Cap;
name = _cap.untenneu;
}
);
paths = (
{
closed = 1;
nodes = (
"118 0 LINE",
"180 0 LINE",
"217 712 LINE",
"154 712 LINE"
);
}
);
};
layerId = "E3DDE12C-3A5F-4385-A6FD-0C1D1DE2DDC5";
paths = (
{
closed = 1;
nodes = (
"260 66 LINE",
"183 49 LINE",
"146 56 OFFCURVE",
"146 110 OFFCURVE",
"152 195 CURVE SMOOTH",
"154 277 OFFCURVE",
"169 452 OFFCURVE",
"187 537 CURVE",
"161 561 LINE",
"125 490 OFFCURVE",
"72 443 OFFCURVE",
"23 414 CURVE",
"44 402 LINE",
"101 402 LINE",
"98 322 OFFCURVE",
"84 228 OFFCURVE",
"83 141 CURVE SMOOTH",
"81 61 OFFCURVE",
"90 5 OFFCURVE",
"159 -15 CURVE",
"201 0 OFFCURVE",
"237 20 OFFCURVE",
"266 46 CURVE"
);
},
{
closed = 1;
nodes = (
"23 414 LINE",
"42 394 LINE",
"235 394 LINE",
"251 404 OFFCURVE",
"267 417 OFFCURVE",
"279 434 CURVE",
"262 451 LINE",
"137 448 LINE",
"71 426 LINE"
);
}
);
width = 298;
}
);
unicode = 0074;
},
{
glyphname = u;
lastChange = "2017-07-09 17:58:59 +0000";
layers = (
{
background = {
paths = (
{
closed = 1;
nodes = (
"487 35 OFFCURVE",
"420 -7 OFFCURVE",
"379 -14 CURVE",
"357 9 LINE",
"365 106 OFFCURVE",
"369 238 OFFCURVE",
"369 351 CURVE SMOOTH",
"369 374 OFFCURVE",
"369 401 OFFCURVE",
"361 444 CURVE",
"415 466 LINE",
"450 466 OFFCURVE",
"468 426 OFFCURVE",
"455 386 CURVE SMOOTH",
"443 350 OFFCURVE",
"429 325 OFFCURVE",
"414 297 CURVE",
"391 272 OFFCURVE",
"387 298 OFFCURVE",
"374 272 CURVE SMOOTH",
"334 193 OFFCURVE",
"306 108 OFFCURVE",
"274 -7 CURVE",
"259 -12 OFFCURVE",
"244 -15 OFFCURVE",
"218 -13 CURVE SMOOTH",
"159 -8 OFFCURVE",
"120 30 OFFCURVE",
"120 141 CURVE",
"120 227 OFFCURVE",
"126 316 OFFCURVE",
"124 395 CURVE",
"56 387 LINE",
"45 407 LINE",
"85 437 OFFCURVE",
"152 460 OFFCURVE",
"182 464 CURVE",
"204 440 LINE",
"188 351 OFFCURVE",
"189 277 OFFCURVE",
"188 195 CURVE",
"188 113 OFFCURVE",
"192 65 OFFCURVE",
"229 48 CURVE",
"287 179 OFFCURVE",
"325 261 OFFCURVE",
"376 331 CURVE SMOOTH",
"399 363 OFFCURVE",
"411 344 OFFCURVE",
"433 377 CURVE",
"432 268 OFFCURVE",
"426 126 OFFCURVE",
"429 51 CURVE",
"509 78 LINE",
"520 61 LINE"
);
}
);
};
components = (
{
name = _part.bogenu;
transform = "{-1, 0, -0.0524, -1, 498, 438}";
piece = {
shoulderWidh = 50.8158;
};
}
);
hints = (
{
origin = "{0, 2}";
target = "{0, 3}";
type = Cap;
name = _cap.untenneu;
},
{
origin = "{0, 0}";
target = "{0, 1}";
type = Cap;
name = _cap.obenneukurz;
}
);
layerId = "E3DDE12C-3A5F-4385-A6FD-0C1D1DE2DDC5";
paths = (
{
closed = 1;
nodes = (
"446 452 LINE",
"384 452 LINE",
"347 0 LINE",
"409 0 LINE"
);
}
);
width = 531;
}
);
rightMetricsKey = n;
unicode = 0075;
},
{
glyphname = udieresis;
lastChange = "2017-07-09 14:10:21 +0000";
layers = (
{
components = (
{
name = _part.bogenu;
transform = "{-1, 0, -0.0524, -1, 498, 438}";
piece = {
shoulderWidh = 50.8158;
};
},
{
name = dotaccentcomb;
transform = "{1, 0, 0, 1, 55, 0}";
},
{
name = dotaccentcomb;
transform = "{1, 0, 0, 1, 264, 0}";
}
);
hints = (
{
origin = "{0, 0}";
target = "{0, 1}";
type = Cap;
name = _cap.obenneukurz;
},
{
origin = "{0, 2}";
target = "{0, 3}";
type = Cap;
name = _cap.untenneu;
}
);
layerId = "E3DDE12C-3A5F-4385-A6FD-0C1D1DE2DDC5";
paths = (
{
closed = 1;
nodes = (
"446 452 LINE",
"384 452 LINE",
"347 0 LINE",
"409 0 LINE"
);
}
);
width = 531;
}
);
leftMetricsKey = u;
rightMetricsKey = u;
unicode = 00FC;
},
{
glyphname = v;
lastChange = "2017-07-08 19:03:44 +0000";
layers = (
{
backgroundImage = {
crop = "{{0, 0}, {1280, 1266}}";
imagePath = "../finale Skizzen/v2.jpg";
locked = "1";
transform = "{0.5167, 0, 0, 0.5167, -53, -130}";
};
layerId = "E3DDE12C-3A5F-4385-A6FD-0C1D1DE2DDC5";
paths = (
{
closed = 1;
nodes = (
"216 138 OFFCURVE",
"202 241 OFFCURVE",
"162 433 CURVE",
"142 462 LINE",
"129 462 OFFCURVE",
"57 453 OFFCURVE",
"0 439 CURVE",
"6 409 LINE",
"52 413 OFFCURVE",
"79 397 OFFCURVE",
"94 355 CURVE SMOOTH",
"122 273 OFFCURVE",
"145 151 OFFCURVE",
"169 0 CURVE",
"196 -18 LINE",
"211 -12 OFFCURVE",
"225 -4 OFFCURVE",
"239 6 CURVE"
);
},
{
closed = 1;
nodes = (
"239 6 LINE",
"289 91 OFFCURVE",
"530 331 OFFCURVE",
"400 468 CURVE",
"366 460 OFFCURVE",
"337 451 OFFCURVE",
"309 436 CURVE",
"309 405 LINE",
"463 305 OFFCURVE",
"257 124 OFFCURVE",
"205 31 CURVE"
);
}
);
width = 469;
}
);
unicode = 0076;
},
{
glyphname = w;
lastChange = "2017-07-08 19:17:09 +0000";
layers = (
{
background = {
paths = (
{
closed = 1;
nodes = (
"187 128 OFFCURVE",
"165 244 OFFCURVE",
"158 366 CURVE SMOOTH",
"157 388 OFFCURVE",
"160 410 OFFCURVE",
"162 433 CURVE",
"142 462 LINE",
"109 462 OFFCURVE",
"57 453 OFFCURVE",
"0 439 CURVE",
"6 409 LINE",
"52 413 OFFCURVE",
"78 402 OFFCURVE",
"83 368 CURVE SMOOTH",
"105 226 OFFCURVE",
"118 151 OFFCURVE",
"149 0 CURVE",
"176 -18 LINE",
"191 -12 OFFCURVE",
"205 -4 OFFCURVE",
"219 6 CURVE"
);
},
{
closed = 1;
nodes = (
"300 212 LINE",
"263 148 OFFCURVE",
"210 82 OFFCURVE",
"185 31 CURVE",
"219 6 LINE",
"232 37 OFFCURVE",
"270 83 OFFCURVE",
"311 136 CURVE"
);
},
{
closed = 1;
nodes = (
"277 161 LINE",
"291 114 OFFCURVE",
"316 64 OFFCURVE",
"329 0 CURVE",
"356 -18 LINE",
"371 -12 OFFCURVE",
"385 -4 OFFCURVE",
"399 6 CURVE",
"378 85 OFFCURVE",
"346 162 OFFCURVE",
"330 239 CURVE"
);
},
{
closed = 1;
nodes = (
"399 6 LINE",
"438 100 OFFCURVE",
"672 331 OFFCURVE",
"550 468 CURVE",
"518 460 OFFCURVE",
"491 450 OFFCURVE",
"465 435 CURVE",
"465 390 LINE",
"555 313 OFFCURVE",
"409 138 OFFCURVE",
"365 31 CURVE"
);
},
{
closed = 1;
nodes = (
"317 141 LINE",
"356 197 OFFCURVE",
"376 246 OFFCURVE",
"370 286 CURVE",
"352 306 OFFCURVE",
"325 316 OFFCURVE",
"287 317 CURVE",
"271 286 LINE",
"263 228 OFFCURVE",
"277 185 OFFCURVE",
"286 145 CURVE"
);
}
);
};
backgroundImage = {
crop = "{{0, 0}, {1280, 838}}";
imagePath = "../finale Skizzen/wy2.jpg";
locked = "1";
transform = "{1, 0, 0, 1, -60, -75}";
};
layerId = "E3DDE12C-3A5F-4385-A6FD-0C1D1DE2DDC5";
paths = (
{
closed = 1;
nodes = (
"181 -12 OFFCURVE",
"195 -4 OFFCURVE",
"209 6 CURVE",
"186 138 OFFCURVE",
"177 241 OFFCURVE",
"142 433 CURVE",
"122 462 LINE",
"109 462 OFFCURVE",
"37 453 OFFCURVE",
"-20 439 CURVE",
"-14 409 LINE",
"32 413 OFFCURVE",
"59 397 OFFCURVE",
"74 355 CURVE SMOOTH",
"99 273 OFFCURVE",
"115 151 OFFCURVE",
"139 0 CURVE",
"166 -18 LINE"
);
},
{
closed = 1;
nodes = (
"242 53 OFFCURVE",
"284 125 OFFCURVE",
"325 233 CURVE",
"292 268 LINE",
"262 167 OFFCURVE",
"209 87 OFFCURVE",
"175 31 CURVE",
"209 6 LINE"
);
},
{
closed = 1;
nodes = (
"384 -18 OFFCURVE",
"398 -10 OFFCURVE",
"412 0 CURVE",
"371 244 LINE",
"299 224 LINE",
"314 158 OFFCURVE",
"324 81 OFFCURVE",
"342 -6 CURVE",
"369 -24 LINE"
);
},
{
closed = 1;
nodes = (
"371 244 LINE",
"362 299 LINE",
"379 331 OFFCURVE",
"388 385 OFFCURVE",
"375 429 CURVE",
"345 453 LINE",
"315 443 OFFCURVE",
"290 428 OFFCURVE",
"268 403 CURVE",
"299 224 LINE"
);
},
{
closed = 1;
nodes = (
"459 85 OFFCURVE",
"693 325 OFFCURVE",
"563 462 CURVE",
"529 454 OFFCURVE",
"500 445 OFFCURVE",
"472 430 CURVE",
"472 399 LINE",
"626 299 OFFCURVE",
"425 118 OFFCURVE",
"378 25 CURVE",
"412 0 LINE"
);
}
);
width = 599;
}
);
unicode = 0077;
},
{
glyphname = x;
lastChange = "2017-07-09 14:42:30 +0000";
layers = (
{
hints = (
{
origin = "{1, 2}";
target = "{1, 3}";
type = Cap;
name = _cap.obenneukurz;
},
{
origin = "{1, 0}";
target = "{1, 1}";
type = Cap;
name = _cap.untenneu;
}
);
layerId = "E3DDE12C-3A5F-4385-A6FD-0C1D1DE2DDC5";
paths = (
{
closed = 1;
nodes = (
"84 155 OFFCURVE",
"14 70 OFFCURVE",
"78 -24 CURVE",
"107 -18 OFFCURVE",
"132 -10 OFFCURVE",
"157 2 CURVE",
"157 33 LINE",
"98 63 OFFCURVE",
"132 140 OFFCURVE",
"233 199 CURVE SMOOTH",
"414 328 OFFCURVE",
"451 384 OFFCURVE",
"397 480 CURVE",
"367 474 OFFCURVE",
"342 466 OFFCURVE",
"317 454 CURVE",
"317 423 LINE",
"393 374 OFFCURVE",
"297 303 OFFCURVE",
"222 245 CURVE SMOOTH"
);
},
{
closed = 1;
nodes = (
"321 -15 LINE",
"375 17 LINE",
"156 464 LINE",
"103 433 LINE"
);
}
);
width = 465;
}
);
unicode = 0078;
},
{
glyphname = y;
lastChange = "2017-07-08 19:20:23 +0000";
layers = (
{
background = {
paths = (
{
closed = 1;
nodes = (
"195 128 OFFCURVE",
"172 244 OFFCURVE",
"166 366 CURVE SMOOTH",
"165 388 OFFCURVE",
"168 410 OFFCURVE",
"170 433 CURVE",
"150 462 LINE",
"117 462 OFFCURVE",
"65 453 OFFCURVE",
"8 439 CURVE",
"14 409 LINE",
"60 413 OFFCURVE",
"86 402 OFFCURVE",
"91 368 CURVE SMOOTH",
"112 226 OFFCURVE",
"128 142 OFFCURVE",
"159 -9 CURVE",
"184 -18 LINE",
"199 -12 OFFCURVE",
"213 -4 OFFCURVE",
"227 6 CURVE"
);
},
{
closed = 1;
nodes = (
"227 6 LINE",
"266 100 OFFCURVE",
"536 331 OFFCURVE",
"398 468 CURVE",
"368 460 OFFCURVE",
"343 450 OFFCURVE",
"319 435 CURVE",
"319 390 LINE",
"419 331 OFFCURVE",
"249 138 OFFCURVE",
"193 31 CURVE"
);
},
{
closed = 1;
nodes = (
"194 51 LINE",
"122 -58 OFFCURVE",
"32 -202 OFFCURVE",
"139 -298 CURVE",
"170 -290 OFFCURVE",
"196 -280 OFFCURVE",
"220 -265 CURVE",
"216 -220 LINE",
"141 -170 OFFCURVE",
"180 -81 OFFCURVE",
"227 6 CURVE"
);
}
);
};
layerId = "E3DDE12C-3A5F-4385-A6FD-0C1D1DE2DDC5";
paths = (
{
closed = 1;
nodes = (
"216 138 OFFCURVE",
"202 241 OFFCURVE",
"162 433 CURVE",
"142 462 LINE",
"129 462 OFFCURVE",
"57 453 OFFCURVE",
"0 439 CURVE",
"6 409 LINE",
"52 413 OFFCURVE",
"79 397 OFFCURVE",
"94 355 CURVE SMOOTH",
"122 274 OFFCURVE",
"153 133 OFFCURVE",
"184 -18 CURVE",
"196 -18 LINE",
"211 -12 OFFCURVE",
"225 -4 OFFCURVE",
"239 6 CURVE"
);
},
{
closed = 1;
nodes = (
"239 6 LINE",
"289 91 OFFCURVE",
"530 331 OFFCURVE",
"400 468 CURVE",
"366 460 OFFCURVE",
"337 451 OFFCURVE",
"309 436 CURVE",
"309 405 LINE",
"463 305 OFFCURVE",
"257 124 OFFCURVE",
"205 31 CURVE"
);
},
{
closed = 1;
nodes = (
"204 32 LINE",
"129 -74 OFFCURVE",
"55 -207 OFFCURVE",
"140 -297 CURVE",
"174 -289 OFFCURVE",
"203 -280 OFFCURVE",
"231 -265 CURVE",
"231 -234 LINE",
"135 -172 OFFCURVE",
"180 -78 OFFCURVE",
"239 6 CURVE"
);
}
);
width = 437;
}
);
unicode = 0079;
},
{
glyphname = z;
lastChange = "2017-07-08 17:26:44 +0000";
layers = (
{
background = {
paths = (
{
closed = 1;
nodes = (
"385 94 OFFCURVE",
"382 52 OFFCURVE",
"374 16 CURVE",
"345 -2 LINE",
"274 9 OFFCURVE",
"198 28 OFFCURVE",
"134 19 CURVE",
"123 -9 LINE",
"88 -8 OFFCURVE",
"62 3 OFFCURVE",
"45 24 CURVE",
"50 61 OFFCURVE",
"78 92 OFFCURVE",
"118 117 CURVE",
"300 349 LINE",
"242 358 OFFCURVE",
"179 396 OFFCURVE",
"136 396 CURVE SMOOTH",
"112 396 OFFCURVE",
"92 383 OFFCURVE",
"80 342 CURVE",
"55 343 LINE",
"59 419 OFFCURVE",
"92 468 OFFCURVE",
"148 468 CURVE SMOOTH",
"220 468 OFFCURVE",
"263 420 OFFCURVE",
"327 404 CURVE",
"359 463 LINE",
"381 463 OFFCURVE",
"402 454 OFFCURVE",
"416 440 CURVE",
"422 396 OFFCURVE",
"392 352 OFFCURVE",
"362 341 CURVE",
"153 69 LINE",
"280 66 OFFCURVE",
"349 74 OFFCURVE",
"361 135 CURVE",
"381 134 LINE"
);
}
);
};
layerId = "E3DDE12C-3A5F-4385-A6FD-0C1D1DE2DDC5";
paths = (
{
closed = 1;
nodes = (
"89 365 OFFCURVE",
"92 407 OFFCURVE",
"100 443 CURVE",
"129 461 LINE",
"200 450 OFFCURVE",
"276 431 OFFCURVE",
"340 440 CURVE",
"351 468 LINE",
"386 467 OFFCURVE",
"412 456 OFFCURVE",
"429 435 CURVE",
"424 398 OFFCURVE",
"396 367 OFFCURVE",
"356 342 CURVE",
"183 110 LINE",
"238 101 OFFCURVE",
"298 63 OFFCURVE",
"338 63 CURVE SMOOTH",
"362 63 OFFCURVE",
"382 76 OFFCURVE",
"394 117 CURVE",
"419 116 LINE",
"415 40 OFFCURVE",
"382 -9 OFFCURVE",
"326 -9 CURVE SMOOTH",
"256 -9 OFFCURVE",
"213 39 OFFCURVE",
"151 55 CURVE",
"127 -9 LINE",
"95 -11 OFFCURVE",
"59 4 OFFCURVE",
"45 24 CURVE",
"49 59 LINE",
"68 84 OFFCURVE",
"92 104 OFFCURVE",
"119 118 CURVE",
"321 390 LINE",
"194 393 OFFCURVE",
"125 385 OFFCURVE",
"113 324 CURVE",
"93 325 LINE"
);
}
);
width = 474;
}
);
unicode = 007A;
},
{
glyphname = d.001;
layers = (
{
background = {
paths = (
{
closed = 1;
nodes = (
"253 691 OFFCURVE",
"316 715 OFFCURVE",
"357 722 CURVE",
"379 698 LINE",
"359 617 OFFCURVE",
"363 472 OFFCURVE",
"363 359 CURVE SMOOTH",
"363 336 OFFCURVE",
"363 309 OFFCURVE",
"371 266 CURVE",
"317 244 LINE",
"294 251 OFFCURVE",
"273 277 OFFCURVE",
"273 310 CURVE",
"393 479 OFFCURVE",
"317 481 OFFCURVE",
"362 371 CURVE",
"343 338 OFFCURVE",
"321 366 OFFCURVE",
"299 333 CURVE",
"299 653 LINE",
"231 645 LINE",
"220 665 LINE"
);
},
{
closed = 1;
nodes = (
"30 63 OFFCURVE",
"94 -13 OFFCURVE",
"166 -13 CURVE SMOOTH",
"194 -13 OFFCURVE",
"217 -12 OFFCURVE",
"240 0 CURVE",
"251 147 OFFCURVE",
"288 242 OFFCURVE",
"310 292 CURVE SMOOTH",
"323 323 OFFCURVE",
"330 287 OFFCURVE",
"346 317 CURVE SMOOTH",
"390 400 LINE",
"389 436 OFFCURVE",
"371 456 OFFCURVE",
"347 467 CURVE",
"289 442 LINE",
"304 361 OFFCURVE",
"300 173 OFFCURVE",
"287 9 CURVE",
"308 -13 LINE",
"352 -2 OFFCURVE",
"429 37 OFFCURVE",
"451 62 CURVE",
"439 79 LINE",
"359 52 LINE",
"359 156 OFFCURVE",
"366 263 OFFCURVE",
"370 369 CURVE",
"344 339 OFFCURVE",
"324 380 OFFCURVE",
"301 340 CURVE SMOOTH",
"237 229 OFFCURVE",
"208 144 OFFCURVE",
"188 49 CURVE",
"33 107 OFFCURVE",
"78 502 OFFCURVE",
"333 389 CURVE",
"362 457 LINE",
"157 494 OFFCURVE",
"30 338 OFFCURVE",
"30 166 CURVE SMOOTH"
);
}
);
};
backgroundImage = {
crop = "{{0, 0}, {960, 1280}}";
imagePath = "../finale Skizzen/oberlänge Stamm.jpg";
locked = "1";
transform = "{0.9996, -0.0284, 0.0284, 0.9996, -132, -266}";
};
layerId = "E3DDE12C-3A5F-4385-A6FD-0C1D1DE2DDC5";
paths = (
{
closed = 1;
nodes = (
"439 79 LINE",
"451 62 LINE",
"429 37 OFFCURVE",
"356 -2 OFFCURVE",
"312 -13 CURVE",
"291 9 LINE",
"300 173 OFFCURVE",
"299 388 OFFCURVE",
"299 653 CURVE",
"231 645 LINE",
"220 665 LINE",
"253 691 OFFCURVE",
"316 715 OFFCURVE",
"357 722 CURVE",
"379 698 LINE",
"357 658 OFFCURVE",
"356 73 OFFCURVE",
"359 52 CURVE"
);
}
);
width = 486;
}
);
},
{
glyphname = g.001;
lastChange = "2017-07-08 17:26:56 +0000";
layers = (
{
background = {
paths = (
{
closed = 1;
nodes = (
"3 -201 OFFCURVE",
"76 -271 OFFCURVE",
"174 -271 CURVE SMOOTH",
"296 -271 OFFCURVE",
"364 -166 OFFCURVE",
"364 -45 CURVE",
"301 -45 LINE",
"301 -109 OFFCURVE",
"292 -222 OFFCURVE",
"203 -222 CURVE SMOOTH",
"132 -222 OFFCURVE",
"71 -182 OFFCURVE",
"91 -67 CURVE",
"23 -100 LINE"
);
}
);
};
layerId = "E3DDE12C-3A5F-4385-A6FD-0C1D1DE2DDC5";
paths = (
{
closed = 1;
nodes = (
"427 100 OFFCURVE",
"373 149 OFFCURVE",
"373 369 CURVE",
"347 339 OFFCURVE",
"351 356 OFFCURVE",
"314 318 CURVE",
"245 221 OFFCURVE",
"223 167 OFFCURVE",
"176 60 CURVE",
"29 137 OFFCURVE",
"113 513 OFFCURVE",
"352 369 CURVE",
"389 433 LINE",
"190 495 OFFCURVE",
"55 366 OFFCURVE",
"33 196 CURVE SMOOTH",
"21 93 OFFCURVE",
"75 10 OFFCURVE",
"146 1 CURVE SMOOTH",
"174 -2 OFFCURVE",
"197 -4 OFFCURVE",
"221 5 CURVE",
"243 94 OFFCURVE",
"286 207 OFFCURVE",
"317 268 CURVE",
"344 317 OFFCURVE",
"340 266 OFFCURVE",
"356 296 CURVE SMOOTH",
"371 324 OFFCURVE",
"385 348 OFFCURVE",
"396 379 CURVE SMOOTH",
"410 420 OFFCURVE",
"400 452 OFFCURVE",
"360 467 CURVE",
"302 442 LINE",
"302 114 OFFCURVE",
"363 105 OFFCURVE",
"363 -47 CURVE SMOOTH",
"363 -200 OFFCURVE",
"283 -206 OFFCURVE",
"232 -206 CURVE SMOOTH",
"205 -206 OFFCURVE",
"173 -190 OFFCURVE",
"156 -169 CURVE",
"170 -114 OFFCURVE",
"177 -93 OFFCURVE",
"221 5 CURVE",
"184 8 LINE",
"140 -71 OFFCURVE",
"106 -134 OFFCURVE",
"77 -211 CURVE",
"97 -234 OFFCURVE",
"150 -255 OFFCURVE",
"190 -255 CURVE SMOOTH",
"293 -255 OFFCURVE",
"427 -206 OFFCURVE",
"427 -8 CURVE SMOOTH"
);
}
);
width = 417;
}
);
},
{
glyphname = t.001;
lastChange = "2017-07-08 17:27:02 +0000";
layers = (
{
background = {
paths = (
{
closed = 1;
nodes = (
"67 0 LINE",
"129 0 LINE",
"166 712 LINE",
"103 712 LINE"
);
}
);
};
layerId = "E3DDE12C-3A5F-4385-A6FD-0C1D1DE2DDC5";
paths = (
{
closed = 1;
nodes = (
"253 66 LINE",
"176 49 LINE",
"135 56 OFFCURVE",
"133 110 OFFCURVE",
"138 195 CURVE SMOOTH",
"143 277 OFFCURVE",
"152 484 OFFCURVE",
"160 576 CURVE",
"142 589 LINE",
"85 561 LINE",
"90 504 OFFCURVE",
"90 455 OFFCURVE",
"88 402 CURVE SMOOTH",
"85 322 OFFCURVE",
"74 228 OFFCURVE",
"74 141 CURVE SMOOTH",
"74 61 OFFCURVE",
"84 5 OFFCURVE",
"153 -15 CURVE",
"195 0 OFFCURVE",
"230 20 OFFCURVE",
"259 46 CURVE"
);
},
{
closed = 1;
nodes = (
"10 417 LINE",
"29 397 LINE",
"134 407 LINE",
"238 397 LINE",
"254 404 OFFCURVE",
"269 417 OFFCURVE",
"281 437 CURVE",
"264 451 LINE",
"123 448 LINE",
"49 452 LINE"
);
}
);
width = 281;
}
);
},
{
glyphname = c.002;
lastChange = "2017-07-01 22:52:51 +0000";
layers = (
{
background = {
paths = (
{
closed = 1;
nodes = (
"300 71 LINE",
"184 16 OFFCURVE",
"91 73 OFFCURVE",
"91 232 CURVE SMOOTH",
"91 300 OFFCURVE",
"111 372 OFFCURVE",
"131 403 CURVE",
"179 418 OFFCURVE",
"277 388 OFFCURVE",
"262 248 CURVE",
"341 277 LINE",
"354 409 OFFCURVE",
"265 459 OFFCURVE",
"204 459 CURVE",
"176 459 OFFCURVE",
"128 445 OFFCURVE",
"90 418 CURVE",
"37 324 OFFCURVE",
"20 229 OFFCURVE",
"20 162 CURVE SMOOTH",
"20 35 OFFCURVE",
"108 -6 OFFCURVE",
"176 -6 CURVE",
"210 -6 OFFCURVE",
"267 5 OFFCURVE",
"313 42 CURVE"
);
},
{
closed = 1;
nodes = (
"358 445 LINE",
"160 499 OFFCURVE",
"31 350 OFFCURVE",
"31 181 CURVE SMOOTH",
"31 32 OFFCURVE",
"138 -35 OFFCURVE",
"248 3 CURVE",
"202 -45 LINE",
"360 311 LINE",
"344 340 LINE",
"160 12 LINE",
"210 58 LINE",
"134 79 OFFCURVE",
"101 150 OFFCURVE",
"101 223 CURVE SMOOTH",
"101 347 OFFCURVE",
"200 476 OFFCURVE",
"360 370 CURVE"
);
}
);
};
layerId = "E3DDE12C-3A5F-4385-A6FD-0C1D1DE2DDC5";
paths = (
{
closed = 1;
nodes = (
"432 426 LINE",
"414 391 LINE",
"352 455 OFFCURVE",
"283 456 OFFCURVE",
"256 456 CURVE SMOOTH",
"110 456 OFFCURVE",
"33 325 OFFCURVE",
"33 181 CURVE SMOOTH",
"33 84 OFFCURVE",
"89 -6 OFFCURVE",
"193 -6 CURVE SMOOTH",
"250 -6 OFFCURVE",
"325 19 OFFCURVE",
"412 90 CURVE",
"369 36 LINE",
"349 128 LINE",
"394 100 LINE",
"330 68 OFFCURVE",
"284 56 OFFCURVE",
"246 56 CURVE SMOOTH",
"132 56 OFFCURVE",
"101 166 OFFCURVE",
"101 223 CURVE SMOOTH",
"101 315 OFFCURVE",
"142 409 OFFCURVE",
"229 409 CURVE SMOOTH",
"277 409 OFFCURVE",
"323 391 OFFCURVE",
"357 336 CURVE",
"311 332 LINE"
);
},
{
closed = 1;
nodes = (
"285 279 LINE",
"316 266 LINE",
"347 297 OFFCURVE",
"376 331 OFFCURVE",
"403 370 CURVE",
"401 403 LINE",
"345 428 LINE"
);
}
);
width = 395;
}
);
},
{
glyphname = e.002;
lastChange = "2017-07-08 17:27:10 +0000";
layers = (
{
background = {
paths = (
{
closed = 1;
nodes = (
"310 67 LINE",
"160 15 OFFCURVE",
"99 84 OFFCURVE",
"99 209 CURVE SMOOTH",
"99 266 OFFCURVE",
"111 370 OFFCURVE",
"131 403 CURVE",
"179 418 OFFCURVE",
"255 413 OFFCURVE",
"262 296 CURVE",
"330 286 LINE",
"336 429 OFFCURVE",
"265 459 OFFCURVE",
"204 459 CURVE",
"176 459 OFFCURVE",
"128 445 OFFCURVE",
"90 418 CURVE",
"52 330 OFFCURVE",
"27 250 OFFCURVE",
"30 147 CURVE SMOOTH",
"33 64 OFFCURVE",
"90 -6 OFFCURVE",
"176 -6 CURVE SMOOTH",
"210 -6 OFFCURVE",
"277 5 OFFCURVE",
"323 42 CURVE"
);
},
{
closed = 1;
nodes = (
"69 163 LINE",
"160 202 OFFCURVE",
"248 242 OFFCURVE",
"330 286 CURVE",
"282 314 LINE",
"212 270 OFFCURVE",
"141 231 OFFCURVE",
"70 192 CURVE"
);
}
);
};
layerId = "E3DDE12C-3A5F-4385-A6FD-0C1D1DE2DDC5";
paths = (
{
closed = 1;
nodes = (
"363 146 LINE",
"388 116 LINE",
"375 94 OFFCURVE",
"304 53 OFFCURVE",
"249 53 CURVE SMOOTH",
"139 53 OFFCURVE",
"98 156 OFFCURVE",
"98 235 CURVE SMOOTH",
"98 315 OFFCURVE",
"149 409 OFFCURVE",
"236 409 CURVE SMOOTH",
"284 409 OFFCURVE",
"316 375 OFFCURVE",
"337 332 CURVE",
"388 368 LINE",
"388 405 LINE",
"338 460 OFFCURVE",
"287 456 OFFCURVE",
"263 456 CURVE SMOOTH",
"117 456 OFFCURVE",
"30 325 OFFCURVE",
"30 193 CURVE SMOOTH",
"30 84 OFFCURVE",
"96 -9 OFFCURVE",
"206 -9 CURVE SMOOTH",
"276 -9 OFFCURVE",
"365 48 OFFCURVE",
"402 89 CURVE",
"398 29 LINE"
);
},
{
closed = 1;
nodes = (
"119 114 LINE",
"215 199 OFFCURVE",
"304 283 OFFCURVE",
"388 366 CURVE",
"388 392 LINE",
"360 413 LINE",
"96 136 LINE"
);
},
{
closed = 1;
nodes = (
"297 345 LINE",
"337 345 LINE",
"337 388 LINE",
"297 388 LINE"
);
}
);
width = 418;
}
);
},
{
glyphname = fi;
lastChange = "2017-07-09 17:06:20 +0000";
layers = (
{
anchors = (
{
name = top;
position = "{504, 452}";
}
);
background = {
hints = (
{
origin = "{2, 2}";
target = "{2, 3}";
type = Cap;
name = _cap.obenneukurz;
},
{
origin = "{2, 0}";
target = "{2, 1}";
type = Cap;
name = _cap.untenneu;
}
);
paths = (
{
closed = 1;
nodes = (
"216 606 OFFCURVE",
"241 694 OFFCURVE",
"303 694 CURVE SMOOTH",
"336 694 OFFCURVE",
"357 665 OFFCURVE",
"374 627 CURVE",
"394 620 LINE",
"430 642 OFFCURVE",
"446 681 OFFCURVE",
"469 735 CURVE",
"469 694 LINE",
"407 740 OFFCURVE",
"355 741 OFFCURVE",
"330 741 CURVE SMOOTH",
"209 741 OFFCURVE",
"149 643 OFFCURVE",
"140 516 CURVE SMOOTH",
"127 318 OFFCURVE",
"121 159 OFFCURVE",
"109 0 CURVE SMOOTH",
"99 -129 OFFCURVE",
"72 -196 OFFCURVE",
"19 -196 CURVE SMOOTH",
"-6 -196 OFFCURVE",
"-21 -184 OFFCURVE",
"-31 -154 CURVE",
"-58 -154 LINE",
"-64 -193 OFFCURVE",
"-59 -231 OFFCURVE",
"-44 -268 CURVE",
"84 -296 OFFCURVE",
"154 -181 OFFCURVE",
"172 -3 CURVE SMOOTH",
"196 238 OFFCURVE",
"194 327 OFFCURVE",
"212 558 CURVE SMOOTH"
);
},
{
closed = 1;
nodes = (
"73 440 OFFCURVE",
"61 423 OFFCURVE",
"54 414 CURVE",
"71 399 LINE",
"133 405 LINE",
"296 394 LINE",
"312 403 OFFCURVE",
"327 421 OFFCURVE",
"339 436 CURVE",
"322 451 LINE",
"137 452 LINE",
"84 449 LINE"
);
},
{
closed = 1;
nodes = (
"357 0 LINE",
"420 0 LINE",
"443 452 LINE",
"381 452 LINE"
);
},
{
closed = 1;
nodes = (
"371 590 LINE",
"389 570 LINE",
"413 576 OFFCURVE",
"437 586 OFFCURVE",
"461 600 CURVE",
"463 626 OFFCURVE",
"465 652 OFFCURVE",
"467 677 CURVE",
"448 698 LINE",
"424 692 OFFCURVE",
"400 683 OFFCURVE",
"375 668 CURVE"
);
}
);
};
layerId = "E3DDE12C-3A5F-4385-A6FD-0C1D1DE2DDC5";
paths = (
{
closed = 1;
nodes = (
"216 606 OFFCURVE",
"241 694 OFFCURVE",
"303 694 CURVE SMOOTH",
"360 694 OFFCURVE",
"389 648 OFFCURVE",
"400 602 CURVE",
"420 595 LINE",
"456 617 OFFCURVE",
"475 638 OFFCURVE",
"498 692 CURVE",
"498 651 LINE",
"451 734 OFFCURVE",
"362 741 OFFCURVE",
"330 741 CURVE SMOOTH",
"209 741 OFFCURVE",
"149 643 OFFCURVE",
"140 516 CURVE SMOOTH",
"127 318 OFFCURVE",
"121 159 OFFCURVE",
"109 0 CURVE SMOOTH",
"99 -129 OFFCURVE",
"72 -196 OFFCURVE",
"19 -196 CURVE SMOOTH",
"-6 -196 OFFCURVE",
"-21 -184 OFFCURVE",
"-31 -154 CURVE",
"-58 -154 LINE",
"-64 -193 OFFCURVE",
"-59 -231 OFFCURVE",
"-44 -268 CURVE",
"84 -296 OFFCURVE",
"154 -181 OFFCURVE",
"172 -3 CURVE SMOOTH",
"196 238 OFFCURVE",
"194 327 OFFCURVE",
"212 558 CURVE SMOOTH"
);
},
{
closed = 1;
nodes = (
"369 405 OFFCURVE",
"376 364 OFFCURVE",
"374 317 CURVE SMOOTH",
"369 209 OFFCURVE",
"362 107 OFFCURVE",
"353 0 CURVE",
"385 -20 LINE",
"431 -8 OFFCURVE",
"471 15 OFFCURVE",
"508 46 CURVE",
"502 66 LINE",
"425 49 LINE",
"421 51 LINE",
"451 433 LINE",
"431 462 LINE",
"137 452 LINE",
"84 449 LINE",
"73 440 OFFCURVE",
"61 423 OFFCURVE",
"54 414 CURVE",
"71 399 LINE",
"133 405 LINE",
"337 407 LINE"
);
}
);
width = 525;
}
);
leftMetricsKey = f;
rightMetricsKey = i;
unicode = FB01;
},
{
glyphname = f_f.liga;
lastChange = "2017-07-09 18:01:21 +0000";
layers = (
{
layerId = "E3DDE12C-3A5F-4385-A6FD-0C1D1DE2DDC5";
paths = (
{
closed = 1;
nodes = (
"216 595 OFFCURVE",
"241 668 OFFCURVE",
"303 669 CURVE SMOOTH",
"378 670 OFFCURVE",
"417 623 OFFCURVE",
"434 597 CURVE",
"454 590 LINE",
"490 612 OFFCURVE",
"492 651 OFFCURVE",
"515 705 CURVE",
"503 651 LINE",
"458 700 OFFCURVE",
"376 716 OFFCURVE",
"330 716 CURVE SMOOTH",
"209 716 OFFCURVE",
"149 626 OFFCURVE",
"140 516 CURVE SMOOTH",
"127 318 OFFCURVE",
"121 159 OFFCURVE",
"109 0 CURVE SMOOTH",
"99 -129 OFFCURVE",
"72 -196 OFFCURVE",
"19 -196 CURVE SMOOTH",
"-6 -196 OFFCURVE",
"-21 -184 OFFCURVE",
"-31 -154 CURVE",
"-58 -154 LINE",
"-64 -193 OFFCURVE",
"-59 -231 OFFCURVE",
"-44 -268 CURVE",
"84 -296 OFFCURVE",
"154 -181 OFFCURVE",
"172 -3 CURVE SMOOTH",
"196 238 OFFCURVE",
"194 327 OFFCURVE",
"212 558 CURVE SMOOTH"
);
},
{
closed = 1;
nodes = (
"73 440 OFFCURVE",
"61 423 OFFCURVE",
"54 414 CURVE",
"71 399 LINE",
"133 405 LINE",
"418 394 LINE",
"434 403 OFFCURVE",
"449 421 OFFCURVE",
"461 436 CURVE",
"444 451 LINE",
"137 452 LINE",
"84 449 LINE"
);
},
{
closed = 1;
nodes = (
"495 606 OFFCURVE",
"520 694 OFFCURVE",
"582 694 CURVE SMOOTH",
"615 694 OFFCURVE",
"636 665 OFFCURVE",
"653 627 CURVE",
"673 620 LINE",
"709 642 OFFCURVE",
"725 681 OFFCURVE",
"748 735 CURVE",
"748 694 LINE",
"686 740 OFFCURVE",
"634 741 OFFCURVE",
"609 741 CURVE SMOOTH",
"488 741 OFFCURVE",
"428 643 OFFCURVE",
"419 516 CURVE SMOOTH",
"405 318 OFFCURVE",
"400 159 OFFCURVE",
"388 0 CURVE SMOOTH",
"378 -129 OFFCURVE",
"351 -196 OFFCURVE",
"298 -196 CURVE SMOOTH",
"273 -196 OFFCURVE",
"258 -184 OFFCURVE",
"248 -154 CURVE",
"221 -154 LINE",
"215 -193 OFFCURVE",
"220 -231 OFFCURVE",
"235 -268 CURVE",
"363 -296 OFFCURVE",
"433 -181 OFFCURVE",
"451 -3 CURVE SMOOTH",
"475 238 OFFCURVE",
"472 327 OFFCURVE",
"491 558 CURVE SMOOTH"
);
},
{
closed = 1;
nodes = (
"450 402 LINE",
"575 394 LINE",
"591 403 OFFCURVE",
"606 421 OFFCURVE",
"618 436 CURVE",
"601 451 LINE",
"450 452 LINE"
);
}
);
width = 594;
}
);
leftMetricsKey = f;
rightMetricsKey = f;
},
{
glyphname = f_h.liga;
lastChange = "2017-07-09 17:17:14 +0000";
layers = (
{
anchors = (
{
name = connect;
position = "{783, 0}";
}
);
background = {
hints = (
{
origin = "{0, 0}";
target = "{0, 1}";
type = Cap;
name = _cap.knubbelneu;
}
);
paths = (
{
closed = 1;
nodes = (
"372 0 LINE",
"434 0 LINE",
"471 712 LINE",
"408 712 LINE"
);
},
{
closed = 1;
nodes = (
"216 606 OFFCURVE",
"241 694 OFFCURVE",
"303 694 CURVE SMOOTH",
"336 694 OFFCURVE",
"357 665 OFFCURVE",
"374 627 CURVE",
"394 620 LINE",
"430 642 OFFCURVE",
"446 681 OFFCURVE",
"469 735 CURVE",
"469 694 LINE",
"407 740 OFFCURVE",
"355 741 OFFCURVE",
"330 741 CURVE SMOOTH",
"209 741 OFFCURVE",
"149 643 OFFCURVE",
"140 516 CURVE SMOOTH",
"127 318 OFFCURVE",
"121 159 OFFCURVE",
"109 0 CURVE SMOOTH",
"99 -129 OFFCURVE",
"72 -196 OFFCURVE",
"19 -196 CURVE SMOOTH",
"-6 -196 OFFCURVE",
"-21 -184 OFFCURVE",
"-31 -154 CURVE",
"-58 -154 LINE",
"-64 -193 OFFCURVE",
"-59 -231 OFFCURVE",
"-44 -268 CURVE",
"84 -296 OFFCURVE",
"154 -181 OFFCURVE",
"172 -3 CURVE SMOOTH",
"196 238 OFFCURVE",
"194 327 OFFCURVE",
"212 558 CURVE SMOOTH"
);
}
);
};
layerId = "E3DDE12C-3A5F-4385-A6FD-0C1D1DE2DDC5";
paths = (
{
closed = 1;
nodes = (
"73 440 OFFCURVE",
"61 423 OFFCURVE",
"54 414 CURVE",
"71 399 LINE",
"133 405 LINE",
"296 394 LINE",
"312 403 OFFCURVE",
"327 421 OFFCURVE",
"339 436 CURVE",
"322 451 LINE",
"137 452 LINE",
"84 449 LINE"
);
},
{
closed = 1;
nodes = (
"432 106 LINE",
"622 443 LINE",
"567 390 LINE",
"616 390 OFFCURVE",
"657 339 OFFCURVE",
"657 245 CURVE SMOOTH",
"657 163 OFFCURVE",
"643 82 OFFCURVE",
"637 0 CURVE",
"668 -20 LINE",
"714 -8 OFFCURVE",
"756 15 OFFCURVE",
"794 46 CURVE",
"790 66 LINE",
"712 49 LINE",
"708 51 LINE",
"711 123 OFFCURVE",
"726 202 OFFCURVE",
"726 277 CURVE SMOOTH",
"726 406 OFFCURVE",
"645 494 OFFCURVE",
"525 442 CURVE",
"576 494 LINE",
"427 159 LINE"
);
},
{
closed = 1;
nodes = (
"402 664 LINE",
"402 510 OFFCURVE",
"389 245 OFFCURVE",
"375 147 CURVE",
"355 105 OFFCURVE",
"341 52 OFFCURVE",
"345 19 CURVE",
"366 -5 OFFCURVE",
"392 -15 OFFCURVE",
"423 -14 CURVE",
"438 22 LINE",
"445 255 OFFCURVE",
"455 429 OFFCURVE",
"487 710 CURVE",
"464 739 LINE",
"430 738 OFFCURVE",
"393 733 OFFCURVE",
"355 725 CURVE"
);
},
{
closed = 1;
nodes = (
"216 606 OFFCURVE",
"241 694 OFFCURVE",
"303 694 CURVE SMOOTH",
"342 694 OFFCURVE",
"387 678 OFFCURVE",
"406 613 CURVE",
"427 620 LINE",
"463 642 OFFCURVE",
"446 681 OFFCURVE",
"469 735 CURVE",
"469 694 LINE",
"407 740 OFFCURVE",
"355 741 OFFCURVE",
"330 741 CURVE SMOOTH",
"209 741 OFFCURVE",
"149 643 OFFCURVE",
"140 516 CURVE SMOOTH",
"127 318 OFFCURVE",
"121 159 OFFCURVE",
"109 0 CURVE SMOOTH",
"99 -129 OFFCURVE",
"72 -196 OFFCURVE",
"19 -196 CURVE SMOOTH",
"-6 -196 OFFCURVE",
"-21 -184 OFFCURVE",
"-31 -154 CURVE",
"-58 -154 LINE",
"-64 -193 OFFCURVE",
"-59 -231 OFFCURVE",
"-44 -268 CURVE",
"84 -296 OFFCURVE",
"154 -181 OFFCURVE",
"172 -3 CURVE SMOOTH",
"196 238 OFFCURVE",
"194 327 OFFCURVE",
"212 558 CURVE SMOOTH"
);
}
);
width = 824;
}
);
leftMetricsKey = f;
rightMetricsKey = h;
},
{
glyphname = f_j.liga;
lastChange = "2017-07-09 17:56:36 +0000";
layers = (
{
anchors = (
{
name = top;
position = "{529, 452}";
}
);
background = {
paths = (
{
closed = 1;
nodes = (
"216 606 OFFCURVE",
"241 694 OFFCURVE",
"303 694 CURVE SMOOTH",
"336 694 OFFCURVE",
"357 665 OFFCURVE",
"374 627 CURVE",
"394 620 LINE",
"430 642 OFFCURVE",
"446 681 OFFCURVE",
"469 735 CURVE",
"469 694 LINE",
"407 740 OFFCURVE",
"355 741 OFFCURVE",
"330 741 CURVE SMOOTH",
"209 741 OFFCURVE",
"149 643 OFFCURVE",
"140 516 CURVE SMOOTH",
"127 318 OFFCURVE",
"121 159 OFFCURVE",
"109 0 CURVE SMOOTH",
"99 -129 OFFCURVE",
"72 -196 OFFCURVE",
"19 -196 CURVE SMOOTH",
"-6 -196 OFFCURVE",
"-21 -184 OFFCURVE",
"-31 -154 CURVE",
"-58 -154 LINE",
"-64 -193 OFFCURVE",
"-59 -231 OFFCURVE",
"-44 -268 CURVE",
"84 -296 OFFCURVE",
"154 -181 OFFCURVE",
"172 -3 CURVE SMOOTH",
"196 238 OFFCURVE",
"194 327 OFFCURVE",
"212 558 CURVE SMOOTH"
);
},
{
closed = 1;
nodes = (
"73 440 OFFCURVE",
"61 423 OFFCURVE",
"54 414 CURVE",
"71 399 LINE",
"133 405 LINE",
"296 394 LINE",
"312 403 OFFCURVE",
"327 421 OFFCURVE",
"339 436 CURVE",
"322 451 LINE",
"137 452 LINE",
"84 449 LINE"
);
},
{
closed = 1;
nodes = (
"382 209 LINE",
"369 0 LINE",
"432 0 LINE",
"443 210 LINE",
"455 452 LINE",
"393 452 LINE"
);
},
{
closed = 1;
nodes = (
"371 590 LINE",
"389 570 LINE",
"413 576 OFFCURVE",
"437 586 OFFCURVE",
"461 600 CURVE",
"463 626 OFFCURVE",
"465 652 OFFCURVE",
"467 677 CURVE",
"448 698 LINE",
"424 692 OFFCURVE",
"400 683 OFFCURVE",
"375 668 CURVE"
);
}
);
};
layerId = "E3DDE12C-3A5F-4385-A6FD-0C1D1DE2DDC5";
paths = (
{
closed = 1;
nodes = (
"216 606 OFFCURVE",
"241 694 OFFCURVE",
"303 694 CURVE SMOOTH",
"360 694 OFFCURVE",
"389 648 OFFCURVE",
"400 602 CURVE",
"420 595 LINE",
"456 617 OFFCURVE",
"475 638 OFFCURVE",
"498 692 CURVE",
"498 651 LINE",
"451 734 OFFCURVE",
"362 741 OFFCURVE",
"330 741 CURVE SMOOTH",
"209 741 OFFCURVE",
"149 643 OFFCURVE",
"140 516 CURVE SMOOTH",
"127 318 OFFCURVE",
"121 159 OFFCURVE",
"109 0 CURVE SMOOTH",
"99 -129 OFFCURVE",
"72 -196 OFFCURVE",
"19 -196 CURVE SMOOTH",
"-6 -196 OFFCURVE",
"-21 -184 OFFCURVE",
"-31 -154 CURVE",
"-58 -154 LINE",
"-64 -193 OFFCURVE",
"-59 -231 OFFCURVE",
"-44 -268 CURVE",
"84 -296 OFFCURVE",
"154 -181 OFFCURVE",
"172 -3 CURVE SMOOTH",
"196 238 OFFCURVE",
"194 327 OFFCURVE",
"212 558 CURVE SMOOTH"
);
},
{
closed = 1;
nodes = (
"369 405 OFFCURVE",
"376 364 OFFCURVE",
"374 317 CURVE SMOOTH",
"369 209 OFFCURVE",
"362 107 OFFCURVE",
"353 0 CURVE",
"385 -20 LINE",
"416 0 LINE",
"421 51 LINE",
"451 433 LINE",
"431 462 LINE",
"137 452 LINE",
"84 449 LINE",
"73 440 OFFCURVE",
"61 423 OFFCURVE",
"54 414 CURVE",
"71 399 LINE",
"133 405 LINE",
"337 407 LINE"
);
},
{
closed = 1;
nodes = (
"280 -288 LINE",
"367 -222 OFFCURVE",
"410 -124 OFFCURVE",
"416 0 CURVE",
"353 0 LINE",
"345 -124 OFFCURVE",
"321 -200 OFFCURVE",
"261 -268 CURVE"
);
}
);
width = 537;
}
);
leftMetricsKey = f;
rightMetricsKey = j;
},
{
glyphname = f_k.liga;
lastChange = "2017-07-09 17:20:04 +0000";
layers = (
{
background = {
paths = (
{
closed = 1;
nodes = (
"216 606 OFFCURVE",
"241 694 OFFCURVE",
"303 694 CURVE SMOOTH",
"336 694 OFFCURVE",
"357 665 OFFCURVE",
"374 627 CURVE",
"394 620 LINE",
"430 642 OFFCURVE",
"446 681 OFFCURVE",
"469 735 CURVE",
"469 694 LINE",
"407 740 OFFCURVE",
"355 741 OFFCURVE",
"330 741 CURVE SMOOTH",
"209 741 OFFCURVE",
"149 643 OFFCURVE",
"140 516 CURVE SMOOTH",
"127 318 OFFCURVE",
"121 159 OFFCURVE",
"109 0 CURVE SMOOTH",
"99 -129 OFFCURVE",
"72 -196 OFFCURVE",
"19 -196 CURVE SMOOTH",
"-6 -196 OFFCURVE",
"-21 -184 OFFCURVE",
"-31 -154 CURVE",
"-58 -154 LINE",
"-64 -193 OFFCURVE",
"-59 -231 OFFCURVE",
"-44 -268 CURVE",
"84 -296 OFFCURVE",
"154 -181 OFFCURVE",
"172 -3 CURVE SMOOTH",
"196 238 OFFCURVE",
"194 327 OFFCURVE",
"212 558 CURVE SMOOTH"
);
},
{
closed = 1;
nodes = (
"73 440 OFFCURVE",
"61 423 OFFCURVE",
"54 414 CURVE",
"71 399 LINE",
"133 405 LINE",
"296 394 LINE",
"312 403 OFFCURVE",
"327 421 OFFCURVE",
"339 436 CURVE",
"322 451 LINE",
"137 452 LINE",
"84 449 LINE"
);
},
{
closed = 1;
nodes = (
"375 0 LINE",
"437 0 LINE",
"474 712 LINE",
"411 712 LINE"
);
},
{
closed = 1;
nodes = (
"436 106 LINE",
"594 386 LINE",
"626 386 OFFCURVE",
"644 362 OFFCURVE",
"644 335 CURVE SMOOTH",
"644 291 OFFCURVE",
"591 240 OFFCURVE",
"532 188 CURVE",
"636 -19 LINE",
"675 -20 LINE",
"691 -7 OFFCURVE",
"704 8 OFFCURVE",
"712 28 CURVE",
"587 196 LINE",
"681 246 OFFCURVE",
"722 295 OFFCURVE",
"722 343 CURVE SMOOTH",
"722 430 OFFCURVE",
"640 471 OFFCURVE",
"562 453 CURVE",
"431 159 LINE"
);
}
);
};
layerId = "E3DDE12C-3A5F-4385-A6FD-0C1D1DE2DDC5";
paths = (
{
closed = 1;
nodes = (
"402 664 LINE",
"402 510 OFFCURVE",
"389 245 OFFCURVE",
"375 147 CURVE",
"355 105 OFFCURVE",
"341 52 OFFCURVE",
"345 19 CURVE",
"366 -5 OFFCURVE",
"392 -15 OFFCURVE",
"423 -14 CURVE",
"438 22 LINE",
"445 255 OFFCURVE",
"455 429 OFFCURVE",
"487 710 CURVE",
"464 739 LINE",
"430 738 OFFCURVE",
"393 733 OFFCURVE",
"355 725 CURVE"
);
},
{
closed = 1;
nodes = (
"216 606 OFFCURVE",
"241 694 OFFCURVE",
"303 694 CURVE SMOOTH",
"342 694 OFFCURVE",
"387 678 OFFCURVE",
"406 613 CURVE",
"427 620 LINE",
"463 642 OFFCURVE",
"446 681 OFFCURVE",
"469 735 CURVE",
"469 694 LINE",
"407 740 OFFCURVE",
"355 741 OFFCURVE",
"330 741 CURVE SMOOTH",
"209 741 OFFCURVE",
"149 643 OFFCURVE",
"140 516 CURVE SMOOTH",
"127 318 OFFCURVE",
"121 159 OFFCURVE",
"109 0 CURVE SMOOTH",
"99 -129 OFFCURVE",
"72 -196 OFFCURVE",
"19 -196 CURVE SMOOTH",
"-6 -196 OFFCURVE",
"-21 -184 OFFCURVE",
"-31 -154 CURVE",
"-58 -154 LINE",
"-64 -193 OFFCURVE",
"-59 -231 OFFCURVE",
"-44 -268 CURVE",
"84 -296 OFFCURVE",
"154 -181 OFFCURVE",
"172 -3 CURVE SMOOTH",
"196 238 OFFCURVE",
"194 327 OFFCURVE",
"212 558 CURVE SMOOTH"
);
},
{
closed = 1;
nodes = (
"73 440 OFFCURVE",
"61 423 OFFCURVE",
"54 414 CURVE",
"71 399 LINE",
"133 405 LINE",
"296 394 LINE",
"312 403 OFFCURVE",
"327 421 OFFCURVE",
"339 436 CURVE",
"322 451 LINE",
"137 452 LINE",
"84 449 LINE"
);
},
{
closed = 1;
nodes = (
"436 106 LINE",
"594 386 LINE",
"626 386 OFFCURVE",
"644 362 OFFCURVE",
"644 335 CURVE SMOOTH",
"644 291 OFFCURVE",
"591 240 OFFCURVE",
"532 188 CURVE",
"636 -19 LINE",
"675 -20 LINE",
"691 -7 OFFCURVE",
"704 8 OFFCURVE",
"712 28 CURVE",
"587 196 LINE",
"681 246 OFFCURVE",
"722 295 OFFCURVE",
"722 343 CURVE SMOOTH",
"722 430 OFFCURVE",
"640 471 OFFCURVE",
"562 453 CURVE",
"431 159 LINE"
);
}
);
width = 761;
}
);
leftMetricsKey = f;
rightMetricsKey = k;
},
{
glyphname = f_l.liga;
lastChange = "2017-07-09 16:56:00 +0000";
layers = (
{
background = {
hints = (
{
origin = "{0, 2}";
target = "{0, 3}";
type = Cap;
name = _cap.obenneu;
},
{
origin = "{0, 0}";
target = "{0, 1}";
type = Cap;
name = _cap.untenneu;
}
);
paths = (
{
closed = 1;
nodes = (
"372 0 LINE",
"434 0 LINE",
"471 712 LINE",
"408 712 LINE"
);
},
{
closed = 1;
nodes = (
"216 606 OFFCURVE",
"241 694 OFFCURVE",
"303 694 CURVE SMOOTH",
"336 694 OFFCURVE",
"357 665 OFFCURVE",
"374 627 CURVE",
"394 620 LINE",
"430 642 OFFCURVE",
"446 681 OFFCURVE",
"469 735 CURVE",
"469 694 LINE",
"407 740 OFFCURVE",
"355 741 OFFCURVE",
"330 741 CURVE SMOOTH",
"209 741 OFFCURVE",
"149 643 OFFCURVE",
"140 516 CURVE SMOOTH",
"127 318 OFFCURVE",
"121 159 OFFCURVE",
"109 0 CURVE SMOOTH",
"99 -129 OFFCURVE",
"72 -196 OFFCURVE",
"19 -196 CURVE SMOOTH",
"-6 -196 OFFCURVE",
"-21 -184 OFFCURVE",
"-31 -154 CURVE",
"-58 -154 LINE",
"-64 -193 OFFCURVE",
"-59 -231 OFFCURVE",
"-44 -268 CURVE",
"84 -296 OFFCURVE",
"154 -181 OFFCURVE",
"172 -3 CURVE SMOOTH",
"196 238 OFFCURVE",
"194 327 OFFCURVE",
"212 558 CURVE SMOOTH"
);
}
);
};
layerId = "E3DDE12C-3A5F-4385-A6FD-0C1D1DE2DDC5";
paths = (
{
closed = 1;
nodes = (
"216 606 OFFCURVE",
"241 694 OFFCURVE",
"303 694 CURVE SMOOTH",
"342 694 OFFCURVE",
"387 678 OFFCURVE",
"406 613 CURVE",
"427 620 LINE",
"463 642 OFFCURVE",
"446 681 OFFCURVE",
"469 735 CURVE",
"469 694 LINE",
"407 740 OFFCURVE",
"355 741 OFFCURVE",
"330 741 CURVE SMOOTH",
"209 741 OFFCURVE",
"149 643 OFFCURVE",
"140 516 CURVE SMOOTH",
"127 318 OFFCURVE",
"121 159 OFFCURVE",
"109 0 CURVE SMOOTH",
"99 -129 OFFCURVE",
"72 -196 OFFCURVE",
"19 -196 CURVE SMOOTH",
"-6 -196 OFFCURVE",
"-21 -184 OFFCURVE",
"-31 -154 CURVE",
"-58 -154 LINE",
"-64 -193 OFFCURVE",
"-59 -231 OFFCURVE",
"-44 -268 CURVE",
"84 -296 OFFCURVE",
"154 -181 OFFCURVE",
"172 -3 CURVE SMOOTH",
"196 238 OFFCURVE",
"194 327 OFFCURVE",
"212 558 CURVE SMOOTH"
);
},
{
closed = 1;
nodes = (
"73 440 OFFCURVE",
"61 423 OFFCURVE",
"54 414 CURVE",
"71 399 LINE",
"133 405 LINE",
"290 394 LINE",
"306 403 OFFCURVE",
"321 421 OFFCURVE",
"333 436 CURVE",
"316 451 LINE",
"137 452 LINE",
"84 449 LINE"
);
},
{
closed = 1;
nodes = (
"402 664 LINE",
"401 473 OFFCURVE",
"387 242 OFFCURVE",
"369 0 CURVE",
"401 -20 LINE",
"447 -7 OFFCURVE",
"488 15 OFFCURVE",
"524 46 CURVE",
"518 66 LINE",
"441 49 LINE",
"437 51 LINE",
"446 269 OFFCURVE",
"464 488 OFFCURVE",
"487 710 CURVE",
"464 739 LINE",
"430 738 OFFCURVE",
"393 733 OFFCURVE",
"355 725 CURVE"
);
}
);
width = 534;
}
);
leftMetricsKey = f;
rightMetricsKey = l;
},
{
glyphname = zero;
lastChange = "2017-07-09 15:28:38 +0000";
layers = (
{
background = {
paths = (
{
closed = 1;
nodes = (
"126 138 LINE",
"89 116 OFFCURVE",
"59 83 OFFCURVE",
"34 38 CURVE",
"52 77 LINE",
"117 -15 OFFCURVE",
"189 -9 OFFCURVE",
"220 -9 CURVE SMOOTH",
"366 -9 OFFCURVE",
"453 138 OFFCURVE",
"453 287 CURVE SMOOTH",
"453 409 OFFCURVE",
"387 514 OFFCURVE",
"277 514 CURVE SMOOTH",
"140 514 OFFCURVE",
"30 380 OFFCURVE",
"30 225 CURVE SMOOTH",
"30 139 OFFCURVE",
"47 90 OFFCURVE",
"99 29 CURVE",
"62 26 LINE",
"170 119 LINE",
"133 72 LINE",
"99 155 OFFCURVE",
"90 186 OFFCURVE",
"90 253 CURVE SMOOTH",
"90 371 OFFCURVE",
"150 444 OFFCURVE",
"234 444 CURVE SMOOTH",
"344 444 OFFCURVE",
"385 328 OFFCURVE",
"385 239 CURVE SMOOTH",
"385 149 OFFCURVE",
"334 44 OFFCURVE",
"247 44 CURVE SMOOTH",
"199 44 OFFCURVE",
"167 82 OFFCURVE",
"146 130 CURVE"
);
}
);
};
layerId = "E3DDE12C-3A5F-4385-A6FD-0C1D1DE2DDC5";
paths = (
{
closed = 1;
nodes = (
"393 514 OFFCURVE",
"263 514 CURVE SMOOTH",
"127 514 OFFCURVE",
"30 372 OFFCURVE",
"30 218 CURVE SMOOTH",
"30 96 OFFCURVE",
"96 -9 OFFCURVE",
"206 -9 CURVE SMOOTH",
"336 -9 OFFCURVE",
"453 133 OFFCURVE",
"453 280 CURVE SMOOTH",
"453 414 OFFCURVE"
);
},
{
closed = 1;
nodes = (
"393 365 OFFCURVE",
"393 252 CURVE SMOOTH",
"393 134 OFFCURVE",
"333 61 OFFCURVE",
"249 61 CURVE SMOOTH",
"139 61 OFFCURVE",
"98 177 OFFCURVE",
"98 266 CURVE SMOOTH",
"98 356 OFFCURVE",
"149 461 OFFCURVE",
"236 461 CURVE SMOOTH",
"329 461 OFFCURVE"
);
}
);
width = 494;
}
);
unicode = 0030;
},
{
glyphname = one;
lastChange = "2017-07-09 15:03:13 +0000";
layers = (
{
background = {
hints = (
{
origin = "{2, 2}";
target = "{2, 3}";
type = Cap;
name = _cap.obenneukurz;
},
{
origin = "{2, 0}";
target = "{2, 1}";
type = Cap;
name = _cap.untenneu;
}
);
paths = (
{
closed = 1;
nodes = (
"189 544 LINE",
"258 470 LINE",
"302 512 LINE",
"234 585 LINE"
);
},
{
closed = 1;
nodes = (
"261 -18 LINE",
"330 -92 LINE",
"374 -50 LINE",
"306 23 LINE"
);
},
{
closed = 1;
nodes = (
"131 52 LINE",
"194 52 LINE",
"217 504 LINE",
"155 504 LINE"
);
}
);
};
layerId = "E3DDE12C-3A5F-4385-A6FD-0C1D1DE2DDC5";
paths = (
{
closed = 1;
nodes = (
"129 143 OFFCURVE",
"134 234 OFFCURVE",
"137 379 CURVE SMOOTH",
"138 459 OFFCURVE",
"99 448 OFFCURVE",
"32 438 CURVE",
"22 471 LINE",
"74 491 OFFCURVE",
"146 509 OFFCURVE",
"208 519 CURVE",
"229 489 LINE",
"209 453 OFFCURVE",
"191 84 OFFCURVE",
"193 61 CURVE",
"294 37 LINE",
"290 11 LINE",
"270 -6 LINE",
"231 0 OFFCURVE",
"207 4 OFFCURVE",
"154 4 CURVE SMOOTH",
"113 4 OFFCURVE",
"73 0 OFFCURVE",
"45 -7 CURVE",
"35 27 LINE",
"125 57 LINE"
);
}
);
width = 315;
}
);
unicode = 0031;
},
{
glyphname = two;
lastChange = "2017-07-09 15:02:12 +0000";
layers = (
{
background = {
paths = (
{
closed = 1;
nodes = (
"55 365 OFFCURVE",
"58 407 OFFCURVE",
"66 443 CURVE",
"95 461 LINE",
"166 450 OFFCURVE",
"242 431 OFFCURVE",
"306 440 CURVE",
"317 468 LINE",
"352 467 OFFCURVE",
"378 456 OFFCURVE",
"395 435 CURVE",
"390 398 OFFCURVE",
"362 367 OFFCURVE",
"322 342 CURVE",
"149 110 LINE",
"204 101 OFFCURVE",
"264 63 OFFCURVE",
"304 63 CURVE SMOOTH",
"328 63 OFFCURVE",
"348 76 OFFCURVE",
"360 117 CURVE",
"385 116 LINE",
"381 40 OFFCURVE",
"348 -9 OFFCURVE",
"292 -9 CURVE SMOOTH",
"222 -9 OFFCURVE",
"179 39 OFFCURVE",
"117 55 CURVE",
"93 -9 LINE",
"61 -11 OFFCURVE",
"25 4 OFFCURVE",
"11 24 CURVE",
"15 59 LINE",
"34 84 OFFCURVE",
"58 104 OFFCURVE",
"85 118 CURVE",
"287 390 LINE",
"160 393 OFFCURVE",
"91 385 OFFCURVE",
"79 324 CURVE",
"59 325 LINE"
);
},
{
closed = 1;
nodes = (
"61 179 LINE",
"28 159 OFFCURVE",
"2 130 OFFCURVE",
"-19 90 CURVE",
"-4 125 LINE",
"53 43 OFFCURVE",
"115 48 OFFCURVE",
"142 48 CURVE SMOOTH",
"269 48 OFFCURVE",
"345 179 OFFCURVE",
"345 311 CURVE SMOOTH",
"345 420 OFFCURVE",
"288 513 OFFCURVE",
"192 513 CURVE SMOOTH",
"73 513 OFFCURVE",
"-23 394 OFFCURVE",
"-23 256 CURVE SMOOTH",
"-23 180 OFFCURVE",
"-8 136 OFFCURVE",
"37 82 CURVE",
"5 79 LINE",
"99 162 LINE",
"67 120 LINE",
"37 194 OFFCURVE",
"29 222 OFFCURVE",
"29 281 CURVE SMOOTH",
"29 386 OFFCURVE",
"82 451 OFFCURVE",
"155 451 CURVE SMOOTH",
"250 451 OFFCURVE",
"286 348 OFFCURVE",
"286 269 CURVE SMOOTH",
"286 189 OFFCURVE",
"242 95 OFFCURVE",
"166 95 CURVE SMOOTH",
"124 95 OFFCURVE",
"96 129 OFFCURVE",
"78 172 CURVE"
);
}
);
};
layerId = "E3DDE12C-3A5F-4385-A6FD-0C1D1DE2DDC5";
paths = (
{
closed = 1;
nodes = (
"344 257 OFFCURVE",
"229 196 OFFCURVE",
"149 110 CURVE",
"204 101 OFFCURVE",
"264 63 OFFCURVE",
"304 63 CURVE SMOOTH",
"328 63 OFFCURVE",
"348 76 OFFCURVE",
"360 117 CURVE",
"385 116 LINE",
"381 40 OFFCURVE",
"348 -9 OFFCURVE",
"292 -9 CURVE SMOOTH",
"222 -9 OFFCURVE",
"179 39 OFFCURVE",
"117 55 CURVE",
"93 -9 LINE",
"61 -11 OFFCURVE",
"25 4 OFFCURVE",
"11 24 CURVE",
"15 59 LINE",
"34 84 OFFCURVE",
"58 104 OFFCURVE",
"85 118 CURVE",
"170 210 OFFCURVE",
"267 276 OFFCURVE",
"267 364 CURVE SMOOTH",
"267 423 OFFCURVE",
"230 463 OFFCURVE",
"182 463 CURVE SMOOTH",
"149 463 OFFCURVE",
"109 448 OFFCURVE",
"86 415 CURVE",
"68 406 LINE",
"45 422 LINE",
"89 493 OFFCURVE",
"150 520 OFFCURVE",
"205 520 CURVE SMOOTH",
"280 520 OFFCURVE",
"344 465 OFFCURVE",
"344 387 CURVE SMOOTH"
);
}
);
width = 395;
}
);
unicode = 0032;
},
{
glyphname = three;
lastChange = "2017-07-09 15:09:34 +0000";
layers = (
{
background = {
paths = (
{
closed = 1;
nodes = (
"22 -84 OFFCURVE",
"40 -105 OFFCURVE",
"85 -105 CURVE SMOOTH",
"149 -105 OFFCURVE",
"217 -75 OFFCURVE",
"270 -31 CURVE SMOOTH",
"322 12 OFFCURVE",
"358 69 OFFCURVE",
"358 122 CURVE SMOOTH",
"358 183 OFFCURVE",
"313 225 OFFCURVE",
"223 246 CURVE",
"223 251 LINE",
"291 286 OFFCURVE",
"333 340 OFFCURVE",
"333 393 CURVE SMOOTH",
"333 461 OFFCURVE",
"282 505 OFFCURVE",
"203 505 CURVE SMOOTH",
"184 505 OFFCURVE",
"165 501 OFFCURVE",
"146 494 CURVE SMOOTH",
"107 480 OFFCURVE",
"74 460 OFFCURVE",
"38 433 CURVE",
"48 391 LINE",
"58 391 LINE",
"89 422 OFFCURVE",
"133 442 OFFCURVE",
"172 442 CURVE SMOOTH",
"216 442 OFFCURVE",
"250 415 OFFCURVE",
"250 372 CURVE SMOOTH",
"250 328 OFFCURVE",
"212 280 OFFCURVE",
"159 255 CURVE",
"94 239 LINE",
"99 204 LINE",
"104 199 LINE",
"227 198 OFFCURVE",
"283 166 OFFCURVE",
"283 98 CURVE SMOOTH",
"283 59 OFFCURVE",
"264 27 OFFCURVE",
"232 3 CURVE SMOOTH",
"200 -21 OFFCURVE",
"155 -35 OFFCURVE",
"106 -35 CURVE SMOOTH",
"81 -35 OFFCURVE",
"54 -32 OFFCURVE",
"26 -26 CURVE",
"21 -32 LINE"
);
}
);
};
layerId = "E3DDE12C-3A5F-4385-A6FD-0C1D1DE2DDC5";
paths = (
{
closed = 1;
nodes = (
"211 275 OFFCURVE",
"248 322 OFFCURVE",
"248 370 CURVE SMOOTH",
"248 413 OFFCURVE",
"222 454 OFFCURVE",
"155 454 CURVE SMOOTH",
"129 454 OFFCURVE",
"96 442 OFFCURVE",
"78 423 CURVE",
"60 414 LINE",
"35 435 LINE",
"73 485 OFFCURVE",
"127 513 OFFCURVE",
"175 513 CURVE SMOOTH",
"270 513 OFFCURVE",
"324 452 OFFCURVE",
"324 387 CURVE SMOOTH",
"324 310 OFFCURVE",
"252 256 OFFCURVE",
"162 230 CURVE",
"134 250 LINE"
);
},
{
closed = 1;
nodes = (
"249 -98 OFFCURVE",
"306 -4 OFFCURVE",
"306 70 CURVE SMOOTH",
"306 204 OFFCURVE",
"194 214 OFFCURVE",
"107 202 CURVE",
"103 240 LINE",
"108 246 OFFCURVE",
"112 253 OFFCURVE",
"120 255 CURVE SMOOTH",
"237 286 OFFCURVE",
"387 256 OFFCURVE",
"387 97 CURVE SMOOTH",
"387 -80 OFFCURVE",
"183 -212 OFFCURVE",
"-20 -122 CURVE",
"-20 -97 OFFCURVE",
"-12 -74 OFFCURVE",
"4 -55 CURVE",
"34 -51 LINE",
"70 -80 OFFCURVE",
"118 -98 OFFCURVE",
"163 -98 CURVE SMOOTH"
);
}
);
width = 416;
}
);
unicode = 0033;
},
{
glyphname = four;
lastChange = "2017-07-09 15:03:02 +0000";
layers = (
{
background = {
paths = (
{
closed = 1;
nodes = (
"34 32 OFFCURVE",
"19 10 OFFCURVE",
"10 -1 CURVE",
"31 -20 LINE",
"154 -11 LINE",
"457 -14 LINE",
"478 -3 OFFCURVE",
"492 7 OFFCURVE",
"509 24 CURVE",
"489 46 LINE",
"115 47 LINE",
"48 43 LINE"
);
},
{
closed = 1;
nodes = (
"204 383 OFFCURVE",
"140 213 OFFCURVE",
"10 -1 CURVE",
"69 17 LINE",
"180 175 OFFCURVE",
"281 362 OFFCURVE",
"313 509 CURVE",
"216 509 LINE"
);
},
{
closed = 1;
nodes = (
"355 259 LINE",
"337 253 OFFCURVE",
"321 244 OFFCURVE",
"305 234 CURVE",
"305 -20 OFFCURVE",
"312 -75 OFFCURVE",
"298 -269 CURVE",
"319 -291 LINE",
"338 -288 OFFCURVE",
"362 -282 OFFCURVE",
"379 -274 CURVE",
"371 -38 OFFCURVE",
"371 -21 OFFCURVE",
"378 235 CURVE"
);
}
);
};
layerId = "E3DDE12C-3A5F-4385-A6FD-0C1D1DE2DDC5";
paths = (
{
closed = 1;
nodes = (
"54 62 OFFCURVE",
"39 40 OFFCURVE",
"30 29 CURVE",
"51 10 LINE",
"174 19 LINE",
"487 16 LINE",
"492 30 OFFCURVE",
"495 43 OFFCURVE",
"499 64 CURVE",
"479 90 LINE",
"369 84 OFFCURVE",
"257 80 OFFCURVE",
"142 77 CURVE",
"68 73 LINE"
);
},
{
closed = 1;
nodes = (
"192 374 OFFCURVE",
"138 222 OFFCURVE",
"30 29 CURVE",
"96 47 LINE",
"193 199 OFFCURVE",
"281 376 OFFCURVE",
"309 520 CURVE",
"283 533 LINE",
"202 490 LINE"
);
},
{
closed = 1;
nodes = (
"355 249 LINE",
"337 243 OFFCURVE",
"321 234 OFFCURVE",
"305 224 CURVE",
"305 46 OFFCURVE",
"312 7 OFFCURVE",
"298 -129 CURVE",
"319 -151 LINE",
"338 -148 OFFCURVE",
"362 -142 OFFCURVE",
"379 -134 CURVE",
"371 32 OFFCURVE",
"371 44 OFFCURVE",
"378 225 CURVE"
);
}
);
width = 521;
}
);
unicode = 0034;
},
{
glyphname = five;
lastChange = "2017-07-09 15:06:43 +0000";
layers = (
{
background = {
paths = (
{
closed = 1;
nodes = (
"394 176 OFFCURVE",
"368 209 OFFCURVE",
"325 236 CURVE SMOOTH",
"281 263 OFFCURVE",
"221 280 OFFCURVE",
"154 296 CURVE",
"161 422 LINE",
"190 422 OFFCURVE",
"218 422 OFFCURVE",
"245 421 CURVE SMOOTH",
"297 419 OFFCURVE",
"339 417 OFFCURVE",
"380 414 CURVE",
"386 420 LINE",
"410 538 LINE",
"377 534 LINE",
"366 503 OFFCURVE",
"353 497 OFFCURVE",
"314 495 CURVE SMOOTH",
"125 487 LINE",
"117 479 LINE",
"116 454 OFFCURVE",
"114 428 OFFCURVE",
"112 401 CURVE SMOOTH",
"109 354 OFFCURVE",
"105 295 OFFCURVE",
"100 235 CURVE",
"109 224 LINE",
"188 211 OFFCURVE",
"240 195 OFFCURVE",
"273 175 CURVE SMOOTH",
"305 155 OFFCURVE",
"318 130 OFFCURVE",
"318 98 CURVE SMOOTH",
"318 58 OFFCURVE",
"297 25 OFFCURVE",
"264 2 CURVE SMOOTH",
"231 -21 OFFCURVE",
"184 -35 OFFCURVE",
"132 -35 CURVE SMOOTH",
"106 -35 OFFCURVE",
"79 -32 OFFCURVE",
"51 -26 CURVE",
"46 -32 LINE",
"49 -91 OFFCURVE",
"70 -105 OFFCURVE",
"109 -105 CURVE SMOOTH",
"169 -105 OFFCURVE",
"240 -78 OFFCURVE",
"297 -34 CURVE SMOOTH",
"353 9 OFFCURVE",
"394 67 OFFCURVE",
"394 128 CURVE SMOOTH"
);
}
);
};
layerId = "E3DDE12C-3A5F-4385-A6FD-0C1D1DE2DDC5";
paths = (
{
closed = 1;
nodes = (
"179 347 OFFCURVE",
"188 414 OFFCURVE",
"198 491 CURVE",
"185 505 LINE",
"130 484 LINE",
"124 418 OFFCURVE",
"120 359 OFFCURVE",
"101 253 CURVE",
"162 270 LINE"
);
},
{
closed = 1;
nodes = (
"178 456 LINE",
"236 462 OFFCURVE",
"309 448 OFFCURVE",
"383 434 CURVE",
"402 457 OFFCURVE",
"416 490 OFFCURVE",
"420 529 CURVE",
"397 530 LINE",
"378 502 OFFCURVE",
"313 501 OFFCURVE",
"185 505 CURVE"
);
},
{
closed = 1;
nodes = (
"157 -98 OFFCURVE",
"109 -80 OFFCURVE",
"73 -51 CURVE",
"43 -55 LINE",
"27 -74 OFFCURVE",
"19 -97 OFFCURVE",
"19 -122 CURVE",
"222 -212 OFFCURVE",
"426 -80 OFFCURVE",
"426 97 CURVE SMOOTH",
"426 269 OFFCURVE",
"268 278 OFFCURVE",
"119 279 CURVE SMOOTH",
"111 279 OFFCURVE",
"106 259 OFFCURVE",
"101 253 CURVE",
"98 234 LINE",
"106 226 LINE",
"224 203 OFFCURVE",
"345 217 OFFCURVE",
"345 70 CURVE SMOOTH",
"345 -4 OFFCURVE",
"288 -98 OFFCURVE",
"202 -98 CURVE SMOOTH"
);
}
);
width = 467;
}
);
unicode = 0035;
},
{
glyphname = six;
lastChange = "2017-07-09 14:45:47 +0000";
layers = (
{
background = {
components = (
{
name = _part.bogen;
transform = "{1, 0, 0, 1, 0, -80}";
}
);
};
layerId = "E3DDE12C-3A5F-4385-A6FD-0C1D1DE2DDC5";
paths = (
{
closed = 1;
nodes = (
"423 98 OFFCURVE",
"322 -9 OFFCURVE",
"196 -9 CURVE SMOOTH",
"86 -9 OFFCURVE",
"20 84 OFFCURVE",
"20 193 CURVE SMOOTH",
"20 379 OFFCURVE",
"131 538 OFFCURVE",
"311 670 CURVE",
"332 644 LINE",
"321 625 LINE",
"161 484 OFFCURVE",
"98 356 OFFCURVE",
"98 235 CURVE SMOOTH",
"98 156 OFFCURVE",
"136 53 OFFCURVE",
"239 53 CURVE SMOOTH",
"306 53 OFFCURVE",
"353 106 OFFCURVE",
"353 193 CURVE SMOOTH",
"353 260 OFFCURVE",
"300 319 OFFCURVE",
"217 317 CURVE SMOOTH",
"163 316 OFFCURVE",
"101 278 OFFCURVE",
"76 236 CURVE",
"75 281 LINE",
"122 316 OFFCURVE",
"170 348 OFFCURVE",
"222 374 CURVE",
"320 399 OFFCURVE",
"423 330 OFFCURVE",
"423 218 CURVE SMOOTH"
);
}
);
width = 443;
}
);
unicode = 0036;
},
{
glyphname = seven;
lastChange = "2017-07-09 15:08:32 +0000";
layers = (
{
background = {
paths = (
{
closed = 1;
nodes = (
"156 -8 OFFCURVE",
"214 162 OFFCURVE",
"331 376 CURVE",
"265 358 LINE",
"162 190 OFFCURVE",
"68 -8 OFFCURVE",
"38 -164 CURVE",
"64 -177 LINE",
"145 -134 LINE"
);
}
);
};
layerId = "E3DDE12C-3A5F-4385-A6FD-0C1D1DE2DDC5";
paths = (
{
closed = 1;
nodes = (
"87 36 OFFCURVE",
"186 233 OFFCURVE",
"327 439 CURVE",
"157 442 OFFCURVE",
"65 450 OFFCURVE",
"49 373 CURVE",
"29 374 LINE",
"25 414 OFFCURVE",
"28 456 OFFCURVE",
"36 492 CURVE",
"65 510 LINE",
"156 499 OFFCURVE",
"254 480 OFFCURVE",
"336 489 CURVE",
"347 517 LINE",
"382 516 OFFCURVE",
"408 505 OFFCURVE",
"425 484 CURVE",
"420 447 OFFCURVE",
"392 416 OFFCURVE",
"352 391 CURVE",
"246 224 OFFCURVE",
"170 45 OFFCURVE",
"155 -114 CURVE",
"73 -157 LINE",
"48 -144 LINE"
);
}
);
width = 445;
}
);
unicode = 0037;
},
{
glyphname = eight;
lastChange = "2017-07-09 14:49:12 +0000";
layers = (
{
background = {
paths = (
{
closed = 1;
nodes = (
"423 98 OFFCURVE",
"322 -9 OFFCURVE",
"196 -9 CURVE SMOOTH",
"86 -9 OFFCURVE",
"20 84 OFFCURVE",
"20 193 CURVE SMOOTH",
"20 379 OFFCURVE",
"131 538 OFFCURVE",
"311 670 CURVE",
"322 654 LINE",
"311 635 LINE",
"158 490 OFFCURVE",
"98 359 OFFCURVE",
"98 235 CURVE SMOOTH",
"98 156 OFFCURVE",
"136 53 OFFCURVE",
"239 53 CURVE SMOOTH",
"306 53 OFFCURVE",
"353 106 OFFCURVE",
"353 193 CURVE SMOOTH",
"353 260 OFFCURVE",
"299 323 OFFCURVE",
"217 317 CURVE",
"76 250 LINE",
"75 273 LINE",
"222 374 LINE",
"320 399 OFFCURVE",
"423 330 OFFCURVE",
"423 218 CURVE SMOOTH"
);
},
{
closed = 1;
nodes = (
"423 98 OFFCURVE",
"322 -9 OFFCURVE",
"196 -9 CURVE SMOOTH",
"86 -9 OFFCURVE",
"20 84 OFFCURVE",
"20 193 CURVE SMOOTH",
"20 379 OFFCURVE",
"131 538 OFFCURVE",
"311 670 CURVE",
"322 654 LINE",
"311 635 LINE",
"158 490 OFFCURVE",
"98 359 OFFCURVE",
"98 235 CURVE SMOOTH",
"98 156 OFFCURVE",
"136 53 OFFCURVE",
"239 53 CURVE SMOOTH",
"306 53 OFFCURVE",
"353 106 OFFCURVE",
"353 193 CURVE SMOOTH",
"353 260 OFFCURVE",
"299 323 OFFCURVE",
"217 317 CURVE",
"76 250 LINE",
"75 273 LINE",
"222 374 LINE",
"320 399 OFFCURVE",
"423 330 OFFCURVE",
"423 218 CURVE SMOOTH"
);
}
);
};
layerId = "E3DDE12C-3A5F-4385-A6FD-0C1D1DE2DDC5";
paths = (
{
closed = 1;
nodes = (
"96 306 LINE",
"45 254 OFFCURVE",
"24 201 OFFCURVE",
"24 154 CURVE SMOOTH",
"24 61 OFFCURVE",
"105 -9 OFFCURVE",
"196 -9 CURVE SMOOTH",
"322 -9 OFFCURVE",
"423 89 OFFCURVE",
"423 198 CURVE SMOOTH",
"423 416 OFFCURVE",
"120 362 OFFCURVE",
"120 518 CURVE SMOOTH",
"120 570 OFFCURVE",
"154 618 OFFCURVE",
"216 618 CURVE SMOOTH",
"285 618 OFFCURVE",
"326 561 OFFCURVE",
"326 506 CURVE SMOOTH",
"326 474 OFFCURVE",
"306 439 OFFCURVE",
"260 410 CURVE SMOOTH"
);
},
{
closed = 1;
nodes = (
"377 452 OFFCURVE",
"397 498 OFFCURVE",
"397 538 CURVE SMOOTH",
"397 615 OFFCURVE",
"340 680 OFFCURVE",
"251 680 CURVE SMOOTH",
"137 680 OFFCURVE",
"50 591 OFFCURVE",
"50 493 CURVE SMOOTH",
"50 289 OFFCURVE",
"353 343 OFFCURVE",
"353 173 CURVE SMOOTH",
"353 98 OFFCURVE",
"306 53 OFFCURVE",
"239 53 CURVE SMOOTH",
"159 53 OFFCURVE",
"110 118 OFFCURVE",
"110 187 CURVE SMOOTH",
"110 232 OFFCURVE",
"130 279 OFFCURVE",
"176 310 CURVE SMOOTH",
"337 416 LINE"
);
}
);
width = 443;
}
);
unicode = 0038;
},
{
glyphname = nine;
lastChange = "2017-07-09 15:10:13 +0000";
layers = (
{
layerId = "E3DDE12C-3A5F-4385-A6FD-0C1D1DE2DDC5";
paths = (
{
closed = 1;
nodes = (
"20 410 OFFCURVE",
"121 512 OFFCURVE",
"247 512 CURVE SMOOTH",
"357 512 OFFCURVE",
"423 419 OFFCURVE",
"423 310 CURVE SMOOTH",
"423 124 OFFCURVE",
"301 -35 OFFCURVE",
"102 -167 CURVE",
"81 -141 LINE",
"92 -122 LINE",
"274 19 OFFCURVE",
"345 186 OFFCURVE",
"345 268 CURVE SMOOTH",
"345 347 OFFCURVE",
"307 450 OFFCURVE",
"204 450 CURVE SMOOTH",
"137 450 OFFCURVE",
"90 401 OFFCURVE",
"90 320 CURVE SMOOTH",
"90 248 OFFCURVE",
"146 186 OFFCURVE",
"226 186 CURVE SMOOTH",
"278 186 OFFCURVE",
"336 229 OFFCURVE",
"367 263 CURVE",
"368 223 LINE",
"324 182 OFFCURVE",
"278 153 OFFCURVE",
"221 129 CURVE",
"123 109 OFFCURVE",
"20 176 OFFCURVE",
"20 295 CURVE SMOOTH"
);
}
);
width = 483;
}
);
unicode = 0039;
},
{
glyphname = comma;
lastChange = "2017-07-09 14:27:23 +0000";
layers = (
{
background = {
components = (
{
name = dotaccentcomb;
transform = "{1.3332, 0, 0, 1.2203, -22, -716}";
}
);
};
layerId = "E3DDE12C-3A5F-4385-A6FD-0C1D1DE2DDC5";
paths = (
{
closed = 1;
nodes = (
"97 106 OFFCURVE",
"132 118 OFFCURVE",
"162 124 CURVE",
"181 102 LINE",
"190 14 OFFCURVE",
"140 -76 OFFCURVE",
"91 -101 CURVE",
"73 -89 LINE",
"90 -46 OFFCURVE",
"105 23 OFFCURVE",
"66 47 CURVE",
"69 91 LINE"
);
}
);
width = 207;
}
);
unicode = 002C;
},
{
glyphname = semicolon;
lastChange = "2017-07-09 14:30:04 +0000";
layers = (
{
components = (
{
name = dotaccentcomb;
transform = "{1.1872, 0, 0, 1.1499, -18, -334}";
}
);
layerId = "E3DDE12C-3A5F-4385-A6FD-0C1D1DE2DDC5";
paths = (
{
closed = 1;
nodes = (
"81 106 OFFCURVE",
"116 118 OFFCURVE",
"146 124 CURVE",
"165 102 LINE",
"174 14 OFFCURVE",
"124 -76 OFFCURVE",
"75 -101 CURVE",
"57 -89 LINE",
"74 -46 OFFCURVE",
"89 23 OFFCURVE",
"50 47 CURVE",
"53 91 LINE"
);
}
);
width = 228;
}
);
unicode = 003B;
},
{
glyphname = hyphen;
lastChange = "2017-07-09 14:52:48 +0000";
layers = (
{
layerId = "E3DDE12C-3A5F-4385-A6FD-0C1D1DE2DDC5";
paths = (
{
closed = 1;
nodes = (
"51 325 OFFCURVE",
"38 306 OFFCURVE",
"26 291 CURVE",
"43 276 LINE",
"105 282 LINE",
"291 275 LINE",
"307 284 OFFCURVE",
"325 306 OFFCURVE",
"338 323 CURVE",
"321 338 LINE",
"116 339 LINE",
"63 336 LINE"
);
}
);
width = 368;
}
);
unicode = 002D;
},
{
glyphname = dotaccentcomb;
lastChange = "2017-06-29 10:11:33 +0000";
layers = (
{
anchors = (
{
name = top;
position = "{114, 452}";
}
);
layerId = "E3DDE12C-3A5F-4385-A6FD-0C1D1DE2DDC5";
paths = (
{
closed = 1;
nodes = (
"69 590 LINE",
"87 570 LINE",
"111 576 OFFCURVE",
"135 586 OFFCURVE",
"159 600 CURVE",
"161 626 OFFCURVE",
"163 652 OFFCURVE",
"165 677 CURVE",
"146 698 LINE",
"122 692 OFFCURVE",
"98 683 OFFCURVE",
"73 668 CURVE"
);
}
);
width = 600;
}
);
unicode = 0307;
},
{
export = 0;
glyphname = _part.bauch;
lastChange = "2017-07-08 17:28:10 +0000";
layers = (
{
layerId = "E3DDE12C-3A5F-4385-A6FD-0C1D1DE2DDC5";
paths = (
{
closed = 1;
nodes = (
"358 445 LINE",
"160 499 OFFCURVE",
"31 350 OFFCURVE",
"31 181 CURVE SMOOTH",
"31 32 OFFCURVE",
"138 -35 OFFCURVE",
"248 3 CURVE",
"202 -45 LINE",
"360 311 LINE",
"344 340 LINE",
"160 12 LINE",
"210 58 LINE",
"134 79 OFFCURVE",
"101 150 OFFCURVE",
"101 223 CURVE SMOOTH",
"101 347 OFFCURVE",
"200 476 OFFCURVE",
"360 370 CURVE"
);
}
);
width = 478;
}
);
},
{
export = 0;
glyphname = _cap.stammende;
lastChange = "2017-06-28 18:34:59 +0000";
layers = (
{
anchors = (
{
name = "new anchor";
position = "{2, 227}";
}
);
layerId = "E3DDE12C-3A5F-4385-A6FD-0C1D1DE2DDC5";
paths = (
{
closed = 0;
nodes = (
"0 225 LINE",
"-2 151 OFFCURVE",
"-5 79 OFFCURVE",
"-11 9 CURVE",
"10 -13 LINE",
"57 0 OFFCURVE",
"121 32 OFFCURVE",
"153 62 CURVE",
"141 79 LINE",
"18 38 LINE",
"65 9 LINE",
"65 225 LINE"
);
}
);
width = 478;
}
);
},
{
export = 0;
glyphname = _cap.knubbel;
lastChange = "2017-06-28 17:55:57 +0000";
layers = (
{
layerId = "E3DDE12C-3A5F-4385-A6FD-0C1D1DE2DDC5";
paths = (
{
closed = 0;
nodes = (
"0 227 LINE",
"-2 174 OFFCURVE",
"-4 117 OFFCURVE",
"-8 61 CURVE",
"4 131 LINE",
"-7 102 OFFCURVE",
"-26 68 OFFCURVE",
"-26 41 CURVE SMOOTH",
"-26 14 OFFCURVE",
"-12 -4 OFFCURVE",
"16 -15 CURVE",
"74 10 LINE",
"65 81 OFFCURVE",
"63 154 OFFCURVE",
"65 227 CURVE"
);
}
);
width = 478;
}
);
},
{
export = 0;
glyphname = _cap.obereserife;
lastChange = "2017-06-28 18:18:37 +0000";
layers = (
{
layerId = "E3DDE12C-3A5F-4385-A6FD-0C1D1DE2DDC5";
paths = (
{
closed = 0;
nodes = (
"0 289 LINE",
"-1 153 OFFCURVE",
"-5 40 OFFCURVE",
"-16 14 CURVE",
"6 -10 LINE",
"61 0 OFFCURVE",
"103 20 OFFCURVE",
"143 47 CURVE",
"132 67 LINE",
"65 59 LINE",
"64 136 OFFCURVE",
"64 213 OFFCURVE",
"64 289 CURVE"
);
}
);
width = 454;
}
);
},
{
export = 0;
glyphname = _part.bogen;
lastChange = "2017-06-29 08:59:06 +0000";
layers = (
{
anchors = (
{
name = _connect;
position = "{109, 0}";
},
{
name = connect;
position = "{379, 0}";
}
);
layerId = "E3DDE12C-3A5F-4385-A6FD-0C1D1DE2DDC5";
paths = (
{
closed = 1;
nodes = (
"108 106 LINE",
"298 443 LINE",
"243 390 LINE",
"292 390 OFFCURVE",
"333 339 OFFCURVE",
"333 245 CURVE SMOOTH",
"333 163 OFFCURVE",
"319 82 OFFCURVE",
"313 0 CURVE",
"344 -20 LINE",
"390 -8 OFFCURVE",
"432 15 OFFCURVE",
"470 46 CURVE",
"466 66 LINE",
"388 49 LINE",
"384 51 LINE",
"387 123 OFFCURVE",
"402 202 OFFCURVE",
"402 277 CURVE SMOOTH",
"402 406 OFFCURVE",
"321 494 OFFCURVE",
"201 442 CURVE",
"252 494 LINE",
"103 159 LINE"
);
}
);
width = 477;
userData = {
PartSelection = {
crotchDepth = 2;
shoulderWidh = 2;
};
};
},
{
anchors = (
{
name = _connect;
position = "{109, 0}";
},
{
name = connect;
position = "{379, 0}";
}
);
associatedMasterId = "E3DDE12C-3A5F-4385-A6FD-0C1D1DE2DDC5";
layerId = "18EAB7CF-9E0B-40D4-B0D9-B4B59782CE99";
name = NarrowSholder;
paths = (
{
closed = 1;
nodes = (
"108 106 LINE",
"290 443 LINE",
"235 390 LINE",
"279 390 OFFCURVE",
"317 339 OFFCURVE",
"317 245 CURVE SMOOTH",
"317 163 OFFCURVE",
"303 82 OFFCURVE",
"297 0 CURVE",
"328 -20 LINE",
"374 -8 OFFCURVE",
"416 15 OFFCURVE",
"464 46 CURVE",
"460 66 LINE",
"372 49 LINE",
"368 51 LINE",
"371 123 OFFCURVE",
"386 202 OFFCURVE",
"386 277 CURVE SMOOTH",
"386 406 OFFCURVE",
"308 494 OFFCURVE",
"193 442 CURVE",
"244 494 LINE",
"103 159 LINE"
);
}
);
width = 477;
userData = {
PartSelection = {
crotchDepth = 2;
shoulderWidh = 1;
};
};
},
{
anchors = (
{
name = _connect;
position = "{109, 0}";
},
{
name = connect;
position = "{379, 0}";
}
);
associatedMasterId = "E3DDE12C-3A5F-4385-A6FD-0C1D1DE2DDC5";
layerId = "3FA632C3-4053-49EC-BADF-7344590C9B41";
name = LowCrotch;
paths = (
{
closed = 1;
nodes = (
"108 96 LINE",
"298 443 LINE",
"243 390 LINE",
"292 390 OFFCURVE",
"333 339 OFFCURVE",
"333 245 CURVE SMOOTH",
"333 163 OFFCURVE",
"319 82 OFFCURVE",
"313 0 CURVE",
"344 -20 LINE",
"390 -8 OFFCURVE",
"432 15 OFFCURVE",
"470 46 CURVE",
"466 66 LINE",
"388 49 LINE",
"384 51 LINE",
"387 123 OFFCURVE",
"402 202 OFFCURVE",
"402 277 CURVE SMOOTH",
"402 406 OFFCURVE",
"321 494 OFFCURVE",
"201 442 CURVE",
"252 494 LINE",
"103 149 LINE"
);
}
);
width = 477;
userData = {
PartSelection = {
crotchDepth = 1;
shoulderWidh = 2;
};
};
}
);
partsSettings = (
{
name = shoulderWidh;
bottomName = Low;
bottomValue = 0;
topName = High;
topValue = 100;
},
{
name = crotchDepth;
bottomName = Low;
bottomValue = -100;
topName = High;
topValue = 0;
}
);
},
{
export = 0;
glyphname = _cap.knubbelneu;
lastChange = "2017-06-29 12:27:54 +0000";
layers = (
{
anchors = (
{
name = connect;
position = "{62, 0}";
}
);
layerId = "E3DDE12C-3A5F-4385-A6FD-0C1D1DE2DDC5";
paths = (
{
closed = 0;
nodes = (
"0 243 LINE",
"0 198 OFFCURVE",
"3 155 OFFCURVE",
"-3 106 CURVE",
"14 175 LINE",
"-15 108 OFFCURVE",
"-32 55 OFFCURVE",
"-27 19 CURVE",
"-5 -8 OFFCURVE",
"22 -12 OFFCURVE",
"51 -14 CURVE",
"56 -2 OFFCURVE",
"61 10 OFFCURVE",
"66 22 CURVE",
"64 96 OFFCURVE",
"63 169 OFFCURVE",
"63 243 CURVE"
);
}
);
width = 478;
}
);
},
{
export = 0;
glyphname = _cap.untenneu;
lastChange = "2017-06-28 21:12:21 +0000";
layers = (
{
layerId = "E3DDE12C-3A5F-4385-A6FD-0C1D1DE2DDC5";
paths = (
{
closed = 0;
nodes = (
"0 209 LINE",
"0 139 OFFCURVE",
"-1 70 OFFCURVE",
"-3 0 CURVE",
"29 -20 LINE",
"73 -8 OFFCURVE",
"117 15 OFFCURVE",
"152 46 CURVE",
"146 66 LINE",
"69 49 LINE",
"65 51 LINE",
"63 102 OFFCURVE",
"61 155 OFFCURVE",
"62 209 CURVE"
);
}
);
width = 492;
}
);
},
{
export = 0;
glyphname = _cap.obenneu;
lastChange = "2017-06-28 21:36:29 +0000";
layers = (
{
layerId = "E3DDE12C-3A5F-4385-A6FD-0C1D1DE2DDC5";
paths = (
{
closed = 0;
nodes = (
"0 469 LINE",
"-2 304 OFFCURVE",
"-4 113 OFFCURVE",
"-16 2 CURVE",
"7 -27 LINE",
"57 -26 OFFCURVE",
"109 -15 OFFCURVE",
"156 -4 CURVE",
"150 26 LINE",
"80 22 OFFCURVE",
"76 43 OFFCURVE",
"71 88 CURVE SMOOTH",
"65 139 OFFCURVE",
"62 333 OFFCURVE",
"63 469 CURVE SMOOTH"
);
}
);
width = 477;
}
);
},
{
export = 0;
glyphname = _cap.obenneukurz;
lastChange = "2017-06-29 11:51:37 +0000";
layers = (
{
layerId = "E3DDE12C-3A5F-4385-A6FD-0C1D1DE2DDC5";
paths = (
{
closed = 0;
nodes = (
"0 209 LINE",
"-1 134 OFFCURVE",
"-1 99 OFFCURVE",
"-9 19 CURVE",
"11 -10 LINE",
"54 -9 OFFCURVE",
"106 2 OFFCURVE",
"153 13 CURVE",
"147 43 LINE",
"77 39 OFFCURVE",
"71 60 OFFCURVE",
"68 105 CURVE SMOOTH",
"66 135 OFFCURVE",
"62 160 OFFCURVE",
"62 209 CURVE"
);
}
);
width = 477;
}
);
},
{
export = 0;
glyphname = _part.bogenknubbel;
lastChange = "2017-06-29 09:09:46 +0000";
layers = (
{
anchors = (
{
name = _connect;
position = "{109, 0}";
},
{
name = connect;
position = "{379, 0}";
}
);
background = {
paths = (
{
closed = 0;
nodes = (
"334 243 LINE",
"330 198 OFFCURVE",
"331 155 OFFCURVE",
"322 106 CURVE",
"343 175 LINE",
"310 108 OFFCURVE",
"289 55 OFFCURVE",
"291 19 CURVE",
"312 -8 OFFCURVE",
"338 -12 OFFCURVE",
"367 -14 CURVE",
"373 -2 OFFCURVE",
"379 10 OFFCURVE",
"384 22 CURVE",
"388 96 OFFCURVE",
"391 169 OFFCURVE",
"396 243 CURVE"
);
}
);
};
layerId = "E3DDE12C-3A5F-4385-A6FD-0C1D1DE2DDC5";
paths = (
{
closed = 1;
nodes = (
"108 106 LINE",
"298 443 LINE",
"243 390 LINE",
"292 390 OFFCURVE",
"333 339 OFFCURVE",
"333 245 CURVE SMOOTH",
"333 201 OFFCURVE",
"330 156 OFFCURVE",
"323 113 CURVE",
"340 173 LINE",
"317 118 OFFCURVE",
"291 68 OFFCURVE",
"291 19 CURVE",
"307 -1 OFFCURVE",
"331 -14 OFFCURVE",
"367 -14 CURVE",
"384 22 LINE",
"385 51 LINE SMOOTH",
"388 123 OFFCURVE",
"402 202 OFFCURVE",
"402 277 CURVE SMOOTH",
"402 406 OFFCURVE",
"321 494 OFFCURVE",
"201 442 CURVE",
"252 494 LINE",
"103 159 LINE"
);
}
);
width = 477;
userData = {
PartSelection = {
crotchDepth = 2;
shoulderWidh = 2;
};
};
},
{
anchors = (
{
name = _connect;
position = "{109, 0}";
},
{
name = connect;
position = "{379, 0}";
}
);
associatedMasterId = "E3DDE12C-3A5F-4385-A6FD-0C1D1DE2DDC5";
layerId = "18EAB7CF-9E0B-40D4-B0D9-B4B59782CE99";
name = NarrowSholder;
paths = (
{
closed = 1;
nodes = (
"108 106 LINE",
"290 443 LINE",
"235 390 LINE",
"280 390 OFFCURVE",
"317 339 OFFCURVE",
"317 245 CURVE SMOOTH",
"317 201 OFFCURVE",
"314 156 OFFCURVE",
"307 113 CURVE",
"324 173 LINE",
"301 118 OFFCURVE",
"275 68 OFFCURVE",
"275 19 CURVE",
"291 -1 OFFCURVE",
"315 -14 OFFCURVE",
"351 -14 CURVE",
"368 22 LINE",
"369 51 LINE SMOOTH",
"372 123 OFFCURVE",
"386 202 OFFCURVE",
"386 277 CURVE SMOOTH",
"386 406 OFFCURVE",
"308 494 OFFCURVE",
"193 442 CURVE",
"244 494 LINE",
"103 159 LINE"
);
}
);
width = 477;
userData = {
PartSelection = {
crotchDepth = 2;
shoulderWidh = 1;
};
};
},
{
anchors = (
{
name = _connect;
position = "{109, 0}";
},
{
name = connect;
position = "{379, 0}";
}
);
associatedMasterId = "E3DDE12C-3A5F-4385-A6FD-0C1D1DE2DDC5";
layerId = "3FA632C3-4053-49EC-BADF-7344590C9B41";
name = LowCrotch;
paths = (
{
closed = 1;
nodes = (
"108 96 LINE",
"298 443 LINE",
"243 390 LINE",
"292 390 OFFCURVE",
"333 339 OFFCURVE",
"333 245 CURVE SMOOTH",
"333 201 OFFCURVE",
"330 156 OFFCURVE",
"323 113 CURVE",
"340 173 LINE",
"317 118 OFFCURVE",
"291 68 OFFCURVE",
"291 19 CURVE",
"307 -1 OFFCURVE",
"331 -14 OFFCURVE",
"367 -14 CURVE",
"384 22 LINE",
"385 51 LINE SMOOTH",
"388 123 OFFCURVE",
"402 202 OFFCURVE",
"402 277 CURVE SMOOTH",
"402 406 OFFCURVE",
"321 494 OFFCURVE",
"201 442 CURVE",
"252 494 LINE",
"103 149 LINE"
);
}
);
width = 477;
userData = {
PartSelection = {
crotchDepth = 1;
shoulderWidh = 2;
};
};
}
);
partsSettings = (
{
name = shoulderWidh;
bottomName = Low;
bottomValue = 0;
topName = High;
topValue = 100;
},
{
name = crotchDepth;
bottomName = Low;
bottomValue = -100;
topName = High;
topValue = 0;
}
);
},
{
export = 0;
glyphname = _cap.unterlaenge;
lastChange = "2017-06-29 09:44:22 +0000";
layers = (
{
layerId = "E3DDE12C-3A5F-4385-A6FD-0C1D1DE2DDC5";
paths = (
{
closed = 0;
nodes = (
"0 272 LINE",
"0 192 OFFCURVE",
"6 130 OFFCURVE",
"-3 53 CURVE",
"-97 24 LINE",
"-85 -10 LINE",
"-47 -2 OFFCURVE",
"-9 0 OFFCURVE",
"29 0 CURVE SMOOTH",
"83 0 OFFCURVE",
"107 -4 OFFCURVE",
"147 -10 CURVE",
"166 7 LINE",
"168 33 LINE",
"66 57 LINE",
"69 131 OFFCURVE",
"63 194 OFFCURVE",
"63 272 CURVE"
);
}
);
width = 464;
}
);
},
{
export = 0;
glyphname = _part.bogenu;
lastChange = "2017-06-29 11:52:05 +0000";
layers = (
{
anchors = (
{
name = _connect;
position = "{109, 0}";
},
{
name = connect;
position = "{379, 0}";
}
);
background = {
hints = (
{
origin = "{0, 2}";
target = "{0, 3}";
type = Cap;
name = _cap.obenneukurz;
}
);
paths = (
{
closed = 1;
nodes = (
"406 452 LINE",
"344 452 LINE",
"323 0 LINE",
"385 0 LINE"
);
}
);
};
layerId = "E3DDE12C-3A5F-4385-A6FD-0C1D1DE2DDC5";
paths = (
{
closed = 1;
nodes = (
"108 106 LINE",
"298 443 LINE",
"243 390 LINE",
"292 390 OFFCURVE",
"333 339 OFFCURVE",
"333 245 CURVE SMOOTH",
"333 160 OFFCURVE",
"320 86 OFFCURVE",
"314 4 CURVE",
"334 -25 LINE",
"383 -22 OFFCURVE",
"425 -14 OFFCURVE",
"476 -2 CURVE",
"470 28 LINE",
"397 20 OFFCURVE",
"387 53 OFFCURVE",
"391 132 CURVE SMOOTH",
"394 180 OFFCURVE",
"402 229 OFFCURVE",
"402 277 CURVE SMOOTH",
"402 406 OFFCURVE",
"321 494 OFFCURVE",
"201 442 CURVE",
"252 494 LINE",
"103 159 LINE"
);
}
);
width = 477;
userData = {
PartSelection = {
crotchDepth = 2;
shoulderWidh = 2;
};
};
},
{
anchors = (
{
name = _connect;
position = "{109, 0}";
},
{
name = connect;
position = "{379, 0}";
}
);
associatedMasterId = "E3DDE12C-3A5F-4385-A6FD-0C1D1DE2DDC5";
layerId = "18EAB7CF-9E0B-40D4-B0D9-B4B59782CE99";
name = NarrowSholder;
paths = (
{
closed = 1;
nodes = (
"108 106 LINE",
"290 443 LINE",
"235 390 LINE",
"280 390 OFFCURVE",
"317 339 OFFCURVE",
"317 245 CURVE SMOOTH",
"317 158 OFFCURVE",
"304 84 OFFCURVE",
"298 -3 CURVE",
"318 -32 LINE",
"367 -29 OFFCURVE",
"409 -21 OFFCURVE",
"460 -9 CURVE",
"454 21 LINE",
"381 13 OFFCURVE",
"371 49 OFFCURVE",
"375 132 CURVE SMOOTH",
"378 180 OFFCURVE",
"386 229 OFFCURVE",
"386 277 CURVE SMOOTH",
"386 406 OFFCURVE",
"308 494 OFFCURVE",
"193 442 CURVE",
"244 494 LINE",
"103 159 LINE"
);
}
);
width = 477;
userData = {
PartSelection = {
crotchDepth = 2;
shoulderWidh = 1;
};
};
},
{
anchors = (
{
name = _connect;
position = "{109, 0}";
},
{
name = connect;
position = "{379, 0}";
}
);
associatedMasterId = "E3DDE12C-3A5F-4385-A6FD-0C1D1DE2DDC5";
layerId = "3FA632C3-4053-49EC-BADF-7344590C9B41";
name = LowCrotch;
paths = (
{
closed = 1;
nodes = (
"108 96 LINE",
"298 443 LINE",
"243 390 LINE",
"292 390 OFFCURVE",
"333 339 OFFCURVE",
"333 245 CURVE SMOOTH",
"333 158 OFFCURVE",
"320 85 OFFCURVE",
"314 -2 CURVE",
"334 -31 LINE",
"383 -28 OFFCURVE",
"425 -20 OFFCURVE",
"476 -8 CURVE",
"470 22 LINE",
"397 14 OFFCURVE",
"387 50 OFFCURVE",
"391 132 CURVE SMOOTH",
"394 180 OFFCURVE",
"402 229 OFFCURVE",
"402 277 CURVE SMOOTH",
"402 406 OFFCURVE",
"321 494 OFFCURVE",
"201 442 CURVE",
"252 494 LINE",
"103 149 LINE"
);
}
);
width = 477;
userData = {
PartSelection = {
crotchDepth = 1;
shoulderWidh = 2;
};
};
}
);
partsSettings = (
{
name = shoulderWidh;
bottomName = Low;
bottomValue = 0;
topName = High;
topValue = 100;
},
{
name = crotchDepth;
bottomName = Low;
bottomValue = -100;
topName = High;
topValue = 0;
}
);
},
